<svg id="圖層_1" data-name="圖層 1" xmlns="http://www.w3.org/2000/svg" viewBox="0 0 1194.38 233.75"><defs><style>.cls-1{fill:#fff;}.cls-2{fill:#ad2326;}.cls-3{fill:#ad2325;}.cls-4{fill:#1b1816;}.cls-5{fill:#181513;}</style></defs><rect class="cls-1" x="12.42" y="28.37" width="175.48" height="174.6"/><path class="cls-2" d="M100.36,26.57c28.43,0,56.86.05,85.29-.08,3.2,0,4.11.76,4.1,4.05q-.17,85.29,0,170.58c0,3.1-.74,3.86-3.85,3.85q-85.91-.15-171.81,0c-2.85,0-3.67-.65-3.67-3.6q.15-85.49,0-171c0-3.06.69-3.9,3.83-3.88C43,26.62,71.66,26.57,100.36,26.57Zm-77.7,88.95c0,24.43.06,48.86-.07,73.29,0,3.39.47,4.64,4.36,4.63q73.29-.25,146.58,0c3.46,0,4.27-.89,4.26-4.31q-.18-73.27,0-146.57c0-3.29-.57-4.41-4.18-4.4q-73.49.19-147,0c-3.29,0-4.05.9-4,4.09C22.72,66.66,22.66,91.09,22.66,115.52Z"/><path class="cls-1" d="M679.1,70.59c1,2.91,4.74,3.31,3.45,6.74-.25.67,1.27.53,2,.55a41.74,41.74,0,0,0,6.71,0c3.83-.51,4.87,1,4.69,4.68-.13,2.74-.86,3.49-3.54,3.41-6.55-.18-13.11-.06-21-.06A62.13,62.13,0,0,0,691,95.69c4.93,1.5,5.47,3.18,2.87,7.87-.56,1-1.05,1.57-2.17,1-4.3-2-3.84.94-3.82,3.6,0,5.28.07,10.56,0,15.84,0,1.25.82,3.33-1.43,3.38-2.41.06-6.27,1.46-6.94-1-1-3.5-3-2.64-5-2.72-2.55-.1-5.12,0-7.68,0-1.27,0-2.76-.23-2.63,1.76.14,2.25-1.35,2-2.81,2.11-3.9.4-6.1-.21-5.76-5.17.51-7.48.25-15,.07-22.55-.07-2.77.82-3.57,3.52-3.45,4.56.21,9.15.06,14.9.06-4.84-3.32-8.75-6-11.89-9.51-1-1.1-2.2-1.06-3.5-1.11-7.34-.3-14.65-.85-20,6-1.37,1.75-3.79,2.68-6.71,4.65,5.55,0,10.09.14,14.61-.06,2.63-.11,3.61.55,3.54,3.38-.19,8.16,0,16.32-.1,24.48,0,1.25.73,3.43-1.6,3.17s-5.52,1.94-6.6-1.49c-.69-2.19-1.86-2.6-3.41-2.17-3.72,1-9-3.1-11.3,3.43-.27.75-4.27.59-6.39.14s-1-2.7-1.08-4.11c-.13-5.75-.1-11.52,0-17.27,0-2.33-.36-3.39-2.92-2-4.66,2.55-3.43-2.17-4.6-3.9-1.8-2.65-.24-3.42,2.13-4.12a66,66,0,0,0,20.14-10.09c-7.52,0-13.81-.21-20.08.09-3.51.17-3.35-1.69-3.38-4.09s-.08-4.2,3.4-4.06c7.19.29,14.43-.3,21.59.21,5.55.4,8.79-1.63,10.64-7.44-8.21,0-16.25-.28-24.26.11-4.62.22-6.59-.72-6-5.85s.22-10.22.08-15.34c-.07-2.52.41-3.77,3.36-3.71,9,.17,17.92.15,26.88,0,2.65-.05,3.21,1,3.15,3.36-.14,5.59,0,11.19-.08,16.79,0,1.84.34,3.35,2.29,3.49,4.64.35,3.78,2.49,1.94,5.18a23.53,23.53,0,0,0-1.43,2.92h22c1.33-2.7-5.18-3-2.09-6.48.25-.28-1-.46-1.56-.47-3.36,0-6.73-.18-10.08,0-2.93.19-4.31-.41-4.12-3.82.31-5.75.17-11.52,0-17.28,0-2.47.33-3.8,3.33-3.74,9.27.17,18.56.15,27.83,0,2.61,0,3.25.89,3.19,3.32-.14,6.08-.15,12.16,0,18.24.06,2.43-.49,3.49-3.14,3.27C685.06,70.41,682.22,70.59,679.1,70.59Zm-7.69,33.32h-5.24c-1,0-2-.07-2,1.32,0,3.18-1.13,7,.22,9.39,2.3,4.11,7.07.92,10.7,1.63,1.39.27,3.5,1,4.12-1.77C681,106.46,679.18,103.9,671.41,103.91Zm-37,12.46c7.34,0,7.06,0,7.43-7.09.23-4.36-1-6.1-5.45-5.45a44.33,44.33,0,0,1-6.21.06c-1,0-2.14.1-2.16,1.3,0,3.48-.55,7.19.48,10.37C629.14,117.52,632.58,116,634.42,116.37Zm39.26-53.24h6.66c1,0,1.7,0,2.09-1.3,1.73-5.7-.3-8.58-6.24-8.58-2.85,0-5.71,0-8.56,0-1,0-2.07-.41-2.56,1.26-1.7,5.71.32,8.61,6.23,8.61Zm-41.18,0c9.44,0,9.34,0,8.7-7.61-.17-2-.86-2.35-2.58-2.31-3.8.09-7.61,0-11.41,0-1,0-2-.28-2.47,1.37-1.59,5.95.23,8.51,6.34,8.51Z"/><path class="cls-1" d="M394.22,117.71c3.5,0,6.54-.14,9.55,0,2.84.16,4.18-.78,4.05-3.78-.21-4.93,1.47-11.07-.9-14.42-1.95-2.77-8.64-.69-13.22-.75-9-.11-9,0-9,8.79,0,4.8-.21,9.61.07,14.38.22,3.81-2.22,3.09-4.35,3.07s-4.9.91-4.72-3.21c.28-6.06-.2-12.16.17-18.21.25-4.17-1.28-5.22-5.15-4.93a62.3,62.3,0,0,1-12.44,0c-4.51-.56-5.72,1.6-6.18,5.37-.9,7.37-3.86,14.06-6.92,20.73-1.15,2.48-1.89,2.26-4,.82-4.45-3-5.31-5.77-2.29-10.65,5-8.12,5.39-17.55,5.53-26.81q.27-18.69,0-37.4c-.05-3.33.43-4.64,4.29-4.6,21.41.23,42.83.18,64.25,0,3.23,0,4.36.67,4.34,4.16-.17,21.42,0,42.84-.11,64.26,0,10-1.78,11.68-11.72,11.69H403C395.07,126.27,395.07,126.27,394.22,117.71Zm-30-26.91c12.2,0,12.12,0,11.59-11.58-.11-2.26-.69-3-3-3q-8.61.21-17.21,0c-2.22,0-2.51.84-2.61,2.78C352.43,90.81,352.38,90.8,364.26,90.8ZM395.8,76.28c-11.9,0-11.9,0-11.1,11.89a2.57,2.57,0,0,1,0,.48c-.22,1.69.57,2.19,2.2,2.17q9.32-.1,18.65,0c1.56,0,2.09-.42,2.3-2.1,1.47-11.88,1-12.44-10.61-12.44Zm0-22c-2.87,0-5.75,0-8.63,0-1,0-2.43-.42-2.45,1.35,0,3.68-.07,7.36,0,11,.05,1.76,1.57,1.24,2.56,1.25,5.91,0,11.83,0,17.74.06,2,0,2.65-.51,2.79-2.64.69-11.08.77-11.07-10.12-11.07ZM364.09,68c12.18,0,12.18,0,11.7-10.57a2.57,2.57,0,0,1,0-.48c.29-2.14-.74-2.72-2.76-2.68-5.75.1-11.5.11-17.25,0-2,0-2.65.5-2.77,2.64C352.4,68,352.32,68,363.13,68Z"/><path class="cls-1" d="M531.54,67.43a2.7,2.7,0,0,1-.12-.47c-.1-5.73-2.34-13,.72-16.73,3-3.56,10.48-.8,16-1.1,3-.16,6.07,0,9.11,0,5.35,0,5.35,0,2.75-5,6.57-2.43,7.79-2.2,10.9,3.25,1.2,2.13,2.85,1.68,4.5,1.69,7.83.05,15.66.17,23.49,0,3.08-.09,3.32,1.33,3.24,3.72-.07,2.19.2,4-3.11,3.86-7-.25-14-.08-21.09-.08-.95,0-1.91,0-2.87,0-2.43,0-3,1.89-3.09,3.52-.18,2.38,2,1.46,3.13,1.48,7.35.09,14.7.08,22,0,2.51,0,4.59-.31,4.48,3.55-.11,3.5-1.88,3.39-4.27,3.32-1.42,0-2.84.18-4.27.28-4.16-.31-8.33-.74-12.72.07,2.19,2.9,5.15,6,5.94,5.86,2.7-.41,3.19-3.13,4.67-4.81.72-.81,1.41-.34,2.12-.41,4.5,2.76,4.5,2.76,0,9.55a37,37,0,0,1,6.12,2.54c1.48.93,5.48-.21,3.53,4.23-1.53,3.47-2.79,5.55-6.59,2.78-.21-.16-.61-.07-1.2-.11,0,4.47-.2,8.93.06,13.37.19,3.23-.59,4.61-4.13,4.33-4.13-.32-8.31.06-12.46-.13-2.39-.1-3,.78-2.9,3,.16,3.35,0,6.71,0,10.07,0,4.56-2,7.26-6.73,7.54-2.07.13-4.14.32-6.21.34-3,0-6-3.68-5.3-6.56.45-2,2-1.15,3.13-1.18,6.95-.2,6.95-.16,6.95-7.2a29,29,0,0,1,0-3.36c.26-2.17-.71-2.71-2.74-2.65-4.47.12-9-.15-13.43.1-3.06.17-4.3-.62-4.08-3.91.29-4.27.07-8.58.07-13.54-4.3,3.83-6.24,1.73-7.48-2.53a93.11,93.11,0,0,1-3.71,21.32,62,62,0,0,1-9.44,19.12c-1.55-.34-2-1.68-3-2.46-3.36-2.75-3-5.37-.65-8.83,4.74-6.93,6.75-14.9,7.68-23.55-1.71,1-3,1.89-4.4,2.69-5.08,3-5.43,2.75-6.85-3.15-.38-1.56-.13-2.43,1.3-3a3.3,3.3,0,0,1,.43-.19c8.12-1.89,11.59-6.95,10.34-15.21Zm27.8.94c-5.19,0-9.33-.17-13.46,0-2.87.15-3.44-1-3.47-3.63s1-3.24,3.4-3.18c4.62.13,9.27-.16,13.89.11,3.13.18,4.23-1.92,4.28-4,.07-2.47-2.43-1.17-3.71-1.2-5.9-.16-11.82-.08-17.73-.06-1.53,0-3.29-.45-3.26,2.16.07,8.09,0,16.19,0,24.38,9.49-2.29,9.62-2.65,3.69-9.06-.41-.44-1-.81-.64-1.58,5.35-3.39,5.66-3.63,8.2-.25s4.27,2.65,6.23-.27C557.37,71,558,70.14,559.34,68.37Zm12.14,26.45c-4.63,0-9.26.08-13.88,0-2.08-.05-2.31,1.06-2.33,2.69s.34,2.67,2.37,2.65c8.93-.08,17.87,0,26.81,0,1.73,0,2.64-.5,2.67-2.43s-.58-2.94-2.72-2.89C580.1,94.89,575.79,94.82,571.48,94.82Zm-.6-5.7h12.94c1.57,0,3.25.36,3.25-2.23,0-2.24-1.08-2.62-3-2.6q-12.93.08-25.86,0c-1.91,0-2.93.31-3,2.56,0,2.56,1.52,2.29,3.15,2.29C562.58,89.11,566.73,89.12,570.88,89.12Zm8.38-11.05c-2.69-3-5-5.78-7.44-8.42-1.76-1.89-3.45-2-5,.42-1.66,2.62-3.42,5.17-5.3,8Z"/><path class="cls-1" d="M837.34,53.29c12.73,0,24.85.07,37,0,3.17,0,5,0,5.07,4.31,0,4.7-2.37,4.17-5.33,4.15-11.36-.06-22.71,0-34.07,0-7.47,0-7.47,0-11.86,7.59h18.29c7.2,0,14.4,0,21.59,0,2.21,0,3.51.17,3.48,3-.13,15,0,30.07-.12,45.1-.06,5.86-2.69,8.45-8.47,8.87-4.14.3-8.3.26-12.45.37-1.54,0-2.49-.24-3-2.16-1.78-6.56-1.75-6.75,5-6.57,1.11,0,2.24,0,3.35.09,5.2.4,8.23-4.15,6-9-.67-1.48-1.88-.92-2.86-.93-11.2,0-22.39,0-33.59-.07-2.23,0-3.09.5-3,2.89.18,4.47-.18,9,.11,13.43.3,4.63-2.93,3.09-5.12,3.22s-4.66.91-4.58-3.19c.26-12.79.09-25.59.09-39.26-3.83,3.19-7.22,5.89-10.47,8.76-1.91,1.68-3.08,2-4.7-.56-3.45-5.49-3.59-5.36,1.68-9.26,8.23-6.08,15.8-12.84,22.18-22.32-7.68,0-14.61-.22-21.51.09-3.63.16-4.53-.91-4.54-4.5s1.2-4.16,4.38-4.06c7.35.23,14.72-.14,22.07.16,3.62.15,5.79-1,6.64-4.44,1.2-4.91,3.64-7.13,9.07-5.29,2.34.79,3.45,1.06,2.08,3.61C838.91,48.92,838.36,50.75,837.34,53.29Zm4.79,47c5.58,0,11.17-.21,16.73.08,3.28.17,3.21-1.58,3-3.78-.17-1.81,1-4.16-2.68-4.1q-17,.3-34,0c-3.58-.07-2.71,2.11-2.77,4-.08,2.06-.51,4,2.93,3.86C831,100.11,836.55,100.33,842.13,100.33Zm.55-23c-5.74,0-11.49.15-17.23-.06-2.7-.1-3.33,1-3,3.3.24,1.84-.89,4.25,2.72,4.21q17-.23,34,0c3.59.06,2.6-2.25,2.76-4.14.2-2.17,0-3.52-2.94-3.38C853.55,77.47,848.11,77.28,842.68,77.28Z"/><path class="cls-1" d="M470.22,83.3c12.79,0,25.57,0,38.36,0,2.59,0,4,.16,4,3.48s-1.41,3.49-4,3.45c-8-.12-16-.06-24,0-1.49,0-3.58-.5-3.42,2,.15,2.34,2.18,1.34,3.37,1.36,5.75.11,11.51.24,17.25,0,3.19-.14,4.44.55,4.33,4.07-.27,8.62-.05,17.26-.13,25.89,0,1.31.86,3.4-.84,3.81-2.22.53-5.59,1.4-6.74-.41-1.4-2.21-2.9-1.52-4.37-1.53-16-.07-32,.13-47.94-.19-3.42-.06-5.19,3.62-8.88,2.55-2-.58-3.43-.46-3.38-3.22q.25-13.89,0-27.8c0-2.66,1-3.21,3.33-3.14,5.27.14,10.55.16,15.82,0,1.42,0,4.1,1.35,4.15-1.45.06-3.14-2.83-1.84-4.43-1.88Q442,90,431.2,90.19c-2.5,0-3.71-.33-3.71-3.3s1.05-3.69,3.9-3.66C444.33,83.38,457.28,83.3,470.22,83.3Zm0,32.42c-8.15,0-16.3,0-24.45,0-1.31,0-3.34-1-3.47,1.81s1.64,2.19,3.16,2.2q24.71,0,49.4,0c1.46,0,3.31.63,3.23-2.12s-2.08-1.87-3.41-1.88C486.51,115.68,478.36,115.72,470.2,115.72ZM454.51,110c13.54,0,27.09,0,40.63,0,1,0,2.68.65,2.71-.94,0-2.07-1.9-1.17-3-1.2-4.79-.1-9.59,0-14.38-.06-3.51-.06-6.17-1.42-7.1-5.13-.33-1.33.65-3.75-2.09-3.25s-6.52-2-8.39,2C461.14,105.23,458.09,107.55,454.51,110Zm1.38-10.67c-4.19,0-7.53,0-10.88,0-.91,0-2.42-.35-2.52.69-.28,3-.92,6.34.09,9,.92,2.41,4.08.59,7,1.09-1.46-2.36-3.38-3.49-3.82-5.55C449.4,104,452.88,103.19,455.89,99.32Zm33.82,3v0h6.17c1.15,0,2.26.05,2.15-1.66-.1-1.39-1-1.33-2-1.33-4.27,0-8.54,0-12.81,0-.87,0-2.1-.19-2,1.24a1.71,1.71,0,0,0,1.85,1.72C485.28,102.28,487.5,102.29,489.71,102.29Zm-20.3-8.41c1-1.23,3.74,1.33,3.88-1.75.14-3.25-2.64-1.95-4.22-2s-4-1.09-3.89,1.86S467.83,93.07,469.41,93.88Z"/><path class="cls-1" d="M930,114.63l14.91-4.46c.65,8.23.69,8.36-6.8,10.62-6.69,2-13.47,3.77-20.23,5.52-5.31,1.38-2.42-3.48-3.67-5.2-1-1.44-.89-3.51,2-3.45,4.59.1,5.4-2.33,5.34-6.58-.24-20.3,0-40.6-.21-60.91,0-4,1.22-4.63,4.79-4.57,12.14.21,24.3.18,36.45,0,3.11,0,4.06.77,4,4-.2,10.87-.18,21.74,0,32.61,0,2.93-.7,3.95-3.72,3.77-4.3-.27-8.64.06-12.95-.12-2.48-.1-3.05.82-2.59,3,.67,3.28.83,7.73,3.48,9,2.32,1.1,4.76-2.93,7.15-4.67a9.63,9.63,0,0,0,2.68-2.72c1.78-3,3.06-2,5.27-.17,3.23,2.61,3.76,4.49.18,7.07-2.32,1.68-4.14,4.14-6.61,5.49-4.77,2.63-3.29,5-.27,7.67,2.76,2.41,5.63,4.7,8.35,7.16,1.2,1.09,3.89,1.62,3.23,3.46-.76,2.14-2.59,4-4.3,5.66-1.26,1.22-2.32-.45-3.2-1.15-11.46-9-20.4-19.87-23.33-34.48-1-5.07-3.35-5.85-7.67-5.41-2,.21-2.28,1-2.27,2.66C930,97.05,930,105.65,930,114.63ZM943.63,62c3.84,0,7.69-.24,11.5.07,3.6.29,2.88-2,2.8-4s1.1-4.62-2.86-4.51c-7.51.22-15,.13-22.52,0-4.1,0-2.29,3-2.54,4.79s-.61,3.87,2.61,3.64C936.27,61.75,940,62,943.63,62Zm.23,16c3.84,0,7.68-.06,11.52,0,4.11.09,2.28-3,2.53-4.8s.67-3.79-2.58-3.7c-7.67.21-15.35.06-23,.07-1.09,0-2-.15-2.4,1.51-1.12,5.14.13,6.9,5.33,6.9Z"/><path class="cls-1" d="M470.44,76.49c.58,3.8-1.08,4.59-4.59,4.51-10.56-.25-21.12-.19-31.68,0-3,0-4.21-.63-4.14-3.94.22-9.43.18-18.88,0-28.31-.05-3,.56-4.17,3.89-4.11,11.36.22,22.72.1,34.08.07,2.14,0,4-.32,4,3,0,3.64-2.34,2.68-4.2,2.71-4.64.07-9.28,0-13.92,0-1.56,0-3.8-.36-3.75,1.8s2.25.91,3.41,1c3.83.18,7.68,0,11.52.09,1.43,0,3.25-.67,3.24,2.09,0,2.38-1.3,2.24-3,2.57-2.2.44-6.22-1.93-6.21,1.49,0,2.37,4.3.7,6.63,1.13a13.18,13.18,0,0,0,2.88,0c1.69-.06,1.64,1.11,1.62,2.26s.25,2.69-1.76,2.67c-2.22,0-4.44,0-7.19,0,2.24,3.29,11.3,2.29,4.82,9.78l15.19-1c.08-3.66-8.13-2.31-5.19-8.23-3.89.29-4.71-1.92-3.14-5.54,1.12-2.59-2-2.66-2.58-4.65,3.54-2.24,6.8-4.89,6.66-9.84,0-1.71,1.52-1.3,2.54-1.31,6.56,0,13.12.14,19.67-.08,3.23-.11,2.84,1.87,2.62,3.7-.41,3.48,1.11,4.65,4.39,4.25a17.05,17.05,0,0,1,3.35,0c1.89.15,1.6,1.61,1.65,2.87s0,2.61-1.88,2.57c-3.52-.07-7.05.07-10.54-.22a4.45,4.45,0,0,1-4.11-3.52c-.4-1.8-.74-3.66-3.2-2.88-3,1-7.07-2.49-9.18,2.2-1.14,2.53-3.3,4.16-6.68,6.62,9.35,0,17.38-.11,25.4.06,2.24,0,5.37-1.46,6.6,1,1.61,3.15-.94,5.67-3,7.94l-3.72,4.1c3.08,2,6.85.83,10,2.43-.21,6.24-.93,6.85-6.9,5.63a7.17,7.17,0,0,1-1.41-.25c-7.7-3.25-15.4-2.08-23.21-.36C474.08,81.92,473.84,81.57,470.44,76.49ZM449.07,65.84c-2.55-.1-5.09-.27-7.64-.27-1.69,0-2.7-.38-2.71-2.38,0-1.82.59-2.68,2.47-2.6a10.82,10.82,0,0,0,2.38-.56c-8.17-4.23,1.4-6,.68-9.26-6.67-.66-6.67-.66-6.67,5.47,0,5.43.16,10.87-.06,16.3-.14,3.31,1.48,3,3.85,2.57L439.5,70c3.43-1,6.86-1.22,9.55-3.45l.76-.43Zm16.12,9.36c-8.42-6.34-9.47-6.32-19.47,0ZM480.84,66c9.93,6.21,12,6.17,17,0Zm-36.42-5.29h5.91c1.13,0,1.76-.47,1.71-1.65-.05-1-.71-1.32-1.57-1.27C448.29,57.93,445.63,56.9,444.42,60.71Z"/><path class="cls-1" d="M302.92,114.75c8.34,1.54,16.71,3,25.15,4.74-2.87,7.83-2.84,7.7-10.45,6-5.91-1.3-11.86-2.41-17.84-3.29-4-.59-5.11-2.11-2.82-5.63a5.5,5.5,0,0,0,.38-1.6H275.51c2.56,6.33,2.59,6.44-4.5,8.18-4.93,1.22-9.93,2.22-14.95,3.07-7.85,1.32-7.86,1.23-10.48-6.47,8.45-1.4,17-1.8,25.25-5-4.58,0-9.17-.11-13.74,0-2.3.09-3-.6-3-2.92q.21-12.47,0-24.93c0-2.35.73-2.93,3-2.93,19.66.08,39.32.11,59,0,2.89,0,3.43,1,3.38,3.6q-.21,12,0,24c0,2.5-.66,3.33-3.19,3.23C311.84,114.62,307.38,114.75,302.92,114.75Zm-16.08-9.34c-7,0-14.08,0-21.11,0-1.46,0-3.51-.66-3.54,1.93s2.09,1.9,3.49,1.91q21.12.06,42.23,0c1.24,0,3.07.77,3.24-1.63.18-2.59-1.61-2.23-3.2-2.23Zm0-8c-7.17,0-14.34,0-21.51,0-1.22,0-3.14-.77-3.09,1.69.05,2.22,1.76,1.86,3.13,1.87q21.51,0,43,0c1.55,0,2.92,0,2.8-2.15s-1.77-1.42-2.84-1.43C301.14,97.4,294,97.43,286.79,97.43Zm-.12-7.7c-7.2,0-14.39,0-21.59,0-1.1,0-2.81-.61-2.78,1.52s1.65,1.59,2.82,1.59q21.58.06,43.17,0c1.16,0,2.77.49,2.76-1.61s-1.68-1.51-2.8-1.52C301.06,89.7,293.86,89.73,286.67,89.73Z"/><path class="cls-1" d="M755.3,117.85c3.67,0,7.31,0,11,0,2.16,0,3.73-.35,3.72-3.08-.06-11.13,0-22.27,0-34.8-4.54,6.88-8.1,12.79-12.49,18.13A177.84,177.84,0,0,1,744,112.4c-1.92,1.88-2.66,1.35-4.14-.69-2.83-3.88-2.5-6.31,1.23-9.68a113.87,113.87,0,0,0,26-34c-6,0-11.51-.28-16.95.09-3.93.27-3.34-2-3.53-4.43-.22-2.85.49-3.95,3.6-3.79,5.59.27,11.2,0,16.79.12,2.31.07,3.06-.64,2.94-2.95-.18-3.51.25-7.07-.12-10.55-.42-3.93,1.67-4,4.54-3.86,2.52.13,5.25-.63,4.74,3.66-.38,3.15.17,6.41-.15,9.58-.34,3.44.88,4.36,4.21,4.15,4.46-.27,6.18,2.41,4.74,6.69-.77,2.31-2.75,1.36-4,1.2-4.09-.52-5,1.07-4.95,5,.26,13.91.12,27.82.1,41.73,0,9.5-2.07,11.54-11.5,11.55h-3.36C756.18,126.27,756.18,126.27,755.3,117.85Z"/><path class="cls-1" d="M1111.75,46.81c11.83,0,23.67.1,35.5-.06,3.21,0,4.43.63,4.4,4.16-.16,21.91,0,43.82-.1,65.74,0,7.69-2.33,10-10,10.3-4.32.16-8.65-.09-13,.09-2,.08-2.94-.68-3.29-2.49-1.56-8.08-2.91-7,5.09-6.71,11.42.44,11.42.43,11.42-11.06,0-15.84-.12-31.67.09-47.51,0-3.46-1-4.13-4.26-4.11-20.63.15-41.27,0-61.9.13-3,0-4.6-.22-4.52-4,.07-3.47.77-4.69,4.51-4.61C1087.75,47,1099.75,46.81,1111.75,46.81Z"/><path class="cls-1" d="M908.78,54.47c-12.33-.92-12.33-.92-12.33,10.86,0,19.36-.08,38.72.08,58.08,0,3.28-.7,4.41-4.15,4.29-3.07-.11-4.46-.48-4.43-4.13q.25-36.72,0-73.44c0-3.25.71-4.49,4.2-4.35,7.19.27,14.4.27,21.59,0,3.34-.12,4,1.08,3.87,4.09-.32,7-2.85,13.38-5.06,19.82-1.09,3.19-1.3,5.75.35,8.9,3.24,6.21,6.15,12.65,4.73,20-1.19,6.19-7.92,10.73-14,9.09-3.62-1-2.92-4.68-3.24-7.18-.4-3,2.32-1,3.47-1.08,5.16-.15,6.62-1.8,5.64-6.89a47,47,0,0,0-5.32-13.75,8.46,8.46,0,0,1-.59-8C905.68,65.55,907.07,60,908.78,54.47Z"/><path class="cls-1" d="M1006.6,112.23c11.49-1.88,22.25-.49,32.88-2.09,2.73-.41,3.3-1,1.89-3.43-2.84-4.79-5.57-9.65-8.35-14.47,7.82-4.17,7.83-4.18,12.35,3.39a145.78,145.78,0,0,1,12,26c.7,2,1.34,4.08-1.73,3.83-2.54-.21-6,5.22-7.56-.83-1.22-4.76-3.06-6-8.5-5.47-17.13,1.73-34.38,2.31-51.58,3.31-6.51.38-3.69-5.19-4.52-7.94-1-3.42,2.68-2.11,3.89-1.88,6.94,1.31,10.27-2.43,13.27-7.94a172.14,172.14,0,0,0,12.77-30.28c2-6.31,5.72-1.6,8.44-1.48,3.86.18,1.49,3.14,1,4.6A149.41,149.41,0,0,1,1006.6,112.23Z"/><path class="cls-1" d="M738.65,95.64c-3.25-4.31-5.11-9.35-9.09-13-1.39,1.52-.73,3.19-.74,4.69-.06,12.15-.22,24.3.07,36.45.09,4-1.91,3.73-4.64,3.82-3,.11-4.56-.26-4.49-4,.26-12.41.1-24.84.1-38.69-4.13,7.82-7.47,14.56-12.87,20.75a67.8,67.8,0,0,0-2.75-6.88c-1.19-2.21-.59-3.68.88-5.54a87,87,0,0,0,13.09-23.18c.95-2.48.52-3.14-2-3s-4.81-.16-7.19.07c-3.07.3-4.08-.69-4.09-3.9s1-4.11,4.13-4c3.45.11,8,1.55,10.12-.61s.58-6.68.65-10.16c.11-5.78,1.6-6.91,7.32-5.78,2,.39,1.61,1.6,1.62,2.77,0,3.52.14,7,0,10.55-.11,2.42.56,3.56,3.18,3.34,2.23-.18,4.52.24,6.71-.09,3.93-.59,4.47,1.3,4.31,4.61-.12,2.34-.49,3.52-3.15,3.27a53.91,53.91,0,0,0-7.19,0c-1.32,0-3.19-.72-3.69,1.21A4.49,4.49,0,0,0,730.35,73c3.48,3.28,6.54,7,10,10.25s3.55,6.25.38,9.61C740,93.69,739.43,94.63,738.65,95.64Z"/><path class="cls-1" d="M286.36,81.15c-8.64,0-17.28-.14-25.91.07-2.94.07-4.07-.6-3.4-3.62.95-4.27-.69-6.11-5.16-5.39-1.71.27-3.52-.06-5.27.06-2.5.18-2.29-1.46-2.39-3.11-.13-1.87.56-2.56,2.45-2.46,2.55.13,5.13-.16,7.67.08,2.84.27,4.29-.47,3.7-3.57-.92-4.84,1.42-5.64,5.8-5.57q24.22.4,48.47,0c3.73,0,5,1.06,4.2,4.52-.9,3.9.72,5.09,4.42,4.6,1.73-.23,3.51,0,5.27,0s3.08-.07,3,2.4c-.12,2-.25,3.47-2.82,3.16-1.26-.16-2.57.1-3.83,0-4.69-.58-8.2,0-7.1,6.16.45,2.5-1.06,2.81-3.14,2.79C303.64,81.1,295,81.15,286.36,81.15Zm12.75-14.36c2.39,0,4.78,0,7.17,0,1,0,2.38.29,2.39-1.5,0-1.32-.5-2.14-1.93-2.13-4.94,0-9.89,0-14.83,0-1.4,0-1.93.91-1.92,2.2,0,1.81,1.42,1.38,2.42,1.41C294.64,66.84,296.88,66.79,299.11,66.79Zm-25.27,0c2.22,0,4.44,0,6.65,0,1,0,1.9-.12,1.87-1.48s-.25-2.16-1.81-2.14c-4.28,0-8.55,0-12.83,0-1.31,0-2,.42-2.11,1.88-.09,1.63.84,1.76,2.06,1.74C269.73,66.76,271.79,66.78,273.84,66.78Zm24.63,8.65c2.55,0,5.09,0,7.64,0,1.05,0,1.83-.18,1.85-1.51s-.59-1.67-1.73-1.66c-4.94,0-9.87,0-14.81,0-1.15,0-1.74.46-1.85,1.62-.17,1.85,1.17,1.54,2.21,1.55C294,75.46,296.24,75.43,298.47,75.43Zm-25.56,0c2.39,0,4.79,0,7.18,0,.84,0,1.52-.31,1.59-1.35s-.44-1.81-1.62-1.81c-4.47,0-8.94,0-13.4,0A1.73,1.73,0,0,0,264.79,74c-.1,1.44.94,1.4,1.9,1.41C268.76,75.45,270.84,75.44,272.91,75.43Z"/><path class="cls-1" d="M1103.17,110.67c-7.34,0-14.68-.09-22,0-2.49,0-3.32-.68-3.28-3.23.15-8,.12-16,0-23.94,0-2.32.39-3.41,3.1-3.38,14.84.12,29.68.09,44.52,0,2.22,0,3.11.56,3.08,2.93-.12,8.14-.14,16.28,0,24.42.05,2.64-1,3.22-3.39,3.18C1117.85,110.6,1110.51,110.67,1103.17,110.67Zm.29-22.07h-6.23c-10.22,0-10.13,0-10,10.25,0,2.61.56,3.61,3.38,3.52,6.22-.22,12.46-.07,18.69-.07,10.19,0,10,0,10-10.22,0-3.19-1.15-3.67-3.87-3.54C1111.45,88.74,1107.45,88.6,1103.46,88.6Z"/><path class="cls-1" d="M543,172.56c2.88-8,5.58-15.33,8.13-22.7.73-2.09,1.86-2.84,4.08-2.74,2.45.11,2.23,1.95,2.43,3.33q2.39,16.1,4.52,32.24c.12.95,1.87,3.16-1.07,2.91-1.89-.17-4.79,1.63-5.32-2.2-.93-6.65-2-13.28-3-19.92-.06-.41-.18-.82-.4-1.87-2.87,7.69-5.57,14.84-8.19,22-.39,1.06-.44,2.57-1.8,2.53s-1.37-1.57-1.73-2.61c-2.4-7-4.81-14-8-21-1.1,6.5-2.22,13-3.28,19.5-.32,2-.34,3.66-3.33,3.82-3.64.2-3.9-1.19-3.39-4.12,1.82-10.55,3.5-21.12,5.22-31.68.24-1.46.36-2.83,2.41-2.86,1.86,0,3.12.19,3.88,2.33C536.91,157,539.85,164.36,543,172.56Z"/><path class="cls-1" d="M339.52,175.07c0-8.58.08-16.09,0-23.6,0-2.42.33-3.55,3.2-3.55s3.58,1,3.54,3.71c-.14,10.44,0,20.88-.1,31.33,0,1.2,1,3.16-1.28,3.45-1.78.24-3.55.37-4.93-1.57-4.07-5.68-8.36-11.22-12.57-16.8-2.05-2.71-4.13-5.38-7-9.07,0,8.4-.15,15.72.08,23,.09,3-.83,3.87-3.81,3.79-2.48-.06-3-.8-3-3.15.12-10.58,0-21.17.1-31.75,0-1.23-1-3.19,1.06-3.59,1.87-.36,3.7-.43,5.23,1.69,5.75,8,11.78,15.8,17.7,23.67C338.1,173.16,338.48,173.67,339.52,175.07Z"/><path class="cls-1" d="M455.59,175c0-8.63.13-16.18-.06-23.73-.07-2.76.88-3.29,3.42-3.32,2.71,0,3.36.9,3.33,3.47-.13,10.44,0,20.89-.1,31.33,0,1.24.94,3.19-1.07,3.63s-3.79.36-5.28-1.68c-5.73-7.84-11.65-15.54-17.5-23.29-.39-.52-.81-1-1.9-2.4,0,8.48-.13,15.85.07,23.2.08,2.84-.76,3.58-3.57,3.59s-3.29-.79-3.25-3.37c.15-10.58,0-21.17.11-31.75,0-1.19-1-3.17,1.26-3.43,1.75-.2,3.47-.4,4.9,1.57,5.85,8.09,11.94,16,17.94,24C454.22,173.27,454.57,173.69,455.59,175Z"/><path class="cls-1" d="M281.83,47.77c-.72-1.54-1.23-2.61-1.76-3.74,4.54-1,9-2.86,11.65,2.93.69,1.51,2.62.77,4,.78,9.28,0,18.56.16,27.84-.05,3-.06,4,.84,3.69,3.77a32.79,32.79,0,0,0,0,7.67c.57,4.07-1.31,4.63-4.82,4.62-3.22,0-4.44-1-3.85-4.09.81-4.31-1-5.19-5.14-5.14-18.08.25-36.16.21-54.23,0-3.41,0-4.36.92-4.17,4.23.25,4.44-3,6.42-7.23,4.82a1.67,1.67,0,0,1-1.23-1.76c0-4,0-8,0-12,0-2.66,1.93-2,3.39-2C260.34,47.75,270.74,47.77,281.83,47.77Z"/><path class="cls-1" d="M491.86,165.88h1.29c7.91,0,7.91,0,6.06,7.69-2,8.45-8.59,13.49-17.09,13.14s-15.36-6.62-16.92-15.4c-2.35-13.22,6.38-24.56,18.64-24.1,5.42.2,10,2.15,13.05,6.91.56.89,1.82,2,.12,2.74s-3.08,3.25-5.18,1.51c-7-5.85-9.91-6.7-14.19-3.77-5.11,3.51-7.31,11.51-5,18.16,1.57,4.54,4.43,7.68,9.39,8.22a8.42,8.42,0,0,0,8-3.12c1.45-1.84,3-4.11,2.19-6.17-.64-1.62-3.31-.55-5.07-.66s-3.6.44-3.63-2.63,1.89-2.5,3.64-2.52C488.72,165.86,490.29,165.88,491.86,165.88Z"/><path class="cls-1" d="M268.1,166.73c0-5.3.16-10.6-.06-15.89-.13-2.83,1.28-2.87,3.37-2.85s3.8.1,3.39,2.9a9.11,9.11,0,0,0,0,1.28c.08,12.53.07,12.48,12.94,11.23,1.74-.17,2.15-.73,2.11-2.31-.08-3.44.14-6.88-.07-10.31-.17-2.92,1.55-2.76,3.53-2.78s3.24,0,3.21,2.61c-.13,10.88-.15,21.76,0,32.64,0,2.83-1.56,2.41-3.27,2.45-1.94,0-3.67.26-3.48-2.73.24-3.85-.05-7.73.1-11.59.08-2.13-.38-3.14-2.77-2.94-4,.34-9.07-1.57-11.6.74-2.33,2.12-.25,7.32-.8,11.08-.27,1.87,2.23,5.19-2.34,5.46-3,.18-4.64-.23-4.35-4C268.4,176.77,268.1,171.74,268.1,166.73Z"/><path class="cls-1" d="M424.58,162.44c0,4,.18,8,0,12-.43,7.68-5.63,12.28-13.63,12.33-7.83,0-13.24-4.31-13.68-11.78-.48-8.13-.25-16.3-.49-24.45-.1-3.16,2-2.37,3.72-2.54,2.17-.22,3.06.48,3,2.83-.14,5.86-.08,11.74,0,17.61a39.85,39.85,0,0,0,.5,6c.7,4.22,3.48,6.9,6.94,6.9s6.15-2.6,6.89-7a37.27,37.27,0,0,0,.48-6c.06-5.87.16-11.75,0-17.62-.1-2.92,1.54-2.68,3.51-2.79,2.21-.12,3,.52,2.94,2.84-.18,3.86-.05,7.73-.05,11.6Z"/><path class="cls-1" d="M829.24,173.46c0-3,.13-6,0-9-.13-2.31.44-3.79,3-3.14a14.93,14.93,0,0,0,8.58-.61c3.52-1.14,6.46,3.19,8.39,2.47,2.84-1.08,5.31-2.88,8.64-2.55a6.24,6.24,0,0,1,6,6.14c.47,5.69.35,11.43.43,17.15.05,2.8-2.13,1.55-3.43,1.74-1.5.22-2.78.13-2.73-2.1.1-4.14-.06-8.3-.12-12.45,0-2.75-.71-5.67-3.81-5.77s-3.91,2.87-4,5.57c-.15,3.86-.32,7.74-.1,11.59.16,2.8-.9,3.31-3.42,3.28s-3.28-.6-3.16-3.11c.19-4,.08-8,0-12-.06-2.35-.43-4.95-3.29-5.27-3.21-.36-4.13,2.5-4.36,4.82a89,89,0,0,0-.21,12.86c.13,2.61-1.12,2.66-3.06,2.68s-3.6,0-3.37-2.82C829.44,179.77,829.24,176.61,829.24,173.46Z"/><path class="cls-1" d="M606.84,162.22c1-5.23.6-10.49.52-15.71-.05-2.59,1-3,3.24-3s3.19.61,3.16,3.1c-.12,11.71-.24,23.44.06,35.15.09,3.72-1.46,4.61-4.35,3.83-2.31-.62-4.11-.1-6.25.61-5.08,1.68-10-.61-12.71-5.36-3-5.35-2.4-12.54,1.41-16.78C595.5,160.06,600,159.49,606.84,162.22ZM608,173.63c0-4.5-2.88-7.9-6.65-7.79-3.52.11-6.48,3.6-6.49,7.66s3.23,7.86,6.84,7.82S607.93,178.05,608,173.63Z"/><path class="cls-1" d="M1113,167c6.47-7.1,9.77-8,17.47-4.72,1-5.09.56-10.17.56-15.23,0-2.28.12-3.64,3.11-3.59,2.75,0,3.3.92,3.27,3.46-.13,11.43-.05,22.87-.05,34.31,0,4.64-.91,5.49-5.43,4.25a4.59,4.59,0,0,0-3.4,0c-7.68,3.13-14.87-1.15-16-9.41a28.37,28.37,0,0,1,.63-9.23Zm18.61,6.66c0-4.5-2.85-7.91-6.62-7.82-3.53.09-6.5,3.56-6.52,7.63s3.2,7.87,6.81,7.85S1131.54,178.08,1131.58,173.66Z"/><path class="cls-1" d="M252.46,186.73c-4.17.08-7.31-1.8-10.06-4.83-2.15-2.38-.65-3.58.93-5.15,2.27-2.26,2.47.51,3.3,1.33,2.29,2.26,4.79,3.79,8,2.37,2.47-1.09,3.41-3.24,3.23-5.95a4.93,4.93,0,0,0-2.94-4.35c-2.15-1.1-4.33-2.14-6.49-3.23-5.15-2.6-7-6-6.05-11a11.22,11.22,0,0,1,9.48-8.66,13.85,13.85,0,0,1,9,2.05c1.58,1,3,1.8,1.4,4.3s-2.43,1.55-4.13.32a5.74,5.74,0,0,0-7.51.17c-2,1.71-2.4,3.83-.34,5.93,2.24,2.28,5.11,3.6,7.85,5.12,5.85,3.27,7.66,6.93,6.21,12.55S258.49,186.73,252.46,186.73Z"/><path class="cls-1" d="M999.78,156.64c-6.74-4.35-11.89-4.09-16.17.65a14.82,14.82,0,0,0-.64,18.86c4.11,5.22,8.74,5.64,16.64,1.53.57,7.74-3.38,10.54-12.29,8.71-9.56-2-16.19-13.3-13.9-23.76,2.35-10.73,12.16-17,22.26-14.94C1001.78,149,999.39,153.09,999.78,156.64Z"/><path class="cls-1" d="M674.59,173.58a61.64,61.64,0,0,0,.07,8.16c.53,3.83-1.59,4.7-4.37,3.81-2.28-.74-3.95-.06-5.92.56a10.43,10.43,0,0,1-12.11-4.1c-3.51-5-3.46-12.64.12-17.27A10.82,10.82,0,0,1,665,161.13a5.68,5.68,0,0,0,4.57.31c3.79-1.34,5-.15,5,4C674.6,168.14,674.59,170.86,674.59,173.58Zm-5.59,0c0-4.75-2.56-7.79-6.55-7.74s-6.65,3.25-6.58,7.82c.07,4.17,2.9,7.5,6.51,7.66C666.2,181.49,669,178.23,669,173.59Z"/><path class="cls-1" d="M1104.25,63.84c8.94,0,17.89.17,26.82-.09,3.33-.09,3.66,1.34,3.43,3.93-.2,2.24.82,4.71-3.28,4.67q-26.58-.3-53.16,0c-4,0-3.38-2.15-3.44-4.53s-.26-4.2,3.29-4.08C1086.69,64,1095.47,63.84,1104.25,63.84Z"/><path class="cls-1" d="M1063.49,76.64c-7.08,7.76-7,7.68-14.18.75A64.82,64.82,0,0,1,1034.53,57c-1.35-3.08-3.19-4.41-6.52-3.93-1.57.23-3.23-.16-4.79.08-4.12.65-5.15-1.1-4.93-5,.16-2.76,1-3.29,3.58-3.48,9.8-.72,17.87-.53,22.16,11.44C1047.16,64.77,1055.6,70.71,1063.49,76.64Z"/><path class="cls-1" d="M379.5,162c1.76-3.16,3.57-5.77,4.75-8.64,1.93-4.72,5-6.52,10.47-4.77-2.82,4.87-5.2,10.05-8.54,14.51-4.47,6-2.83,12.56-2.95,19-.06,3-.88,4-3.85,3.74-1.92-.16-3.44-.15-2.94-2.7,2.27-11.81-3.35-21.18-9.3-30.5-.78-1.22-2.84-2.56-1.36-4.35,1.07-1.27,6.59.24,7.47,1.86C375.26,153.82,377.22,157.62,379.5,162Z"/><path class="cls-1" d="M1003.23,173.38c0-7.8,5.17-13,12.74-13,7.74.08,13,5.54,12.86,13.44-.11,7.58-5.43,12.73-13.1,12.67S1003.21,181.25,1003.23,173.38Zm19.15,0c0-4.44-2.69-7.58-6.37-7.57s-6.77,3.44-6.74,7.83c0,4.24,3.3,7.8,7,7.63S1022.44,177.88,1022.38,173.42Z"/><path class="cls-1" d="M985.28,87.39c-2.09-2.42-4.44-4.49-5.9-7.08C978.51,78.76,981,78,982.07,77,991.6,68,999.58,58,1004.17,45.6c1.6-4.34,4.12-1,6.12-.55,1.83.42,4,.69,2.57,4.05a102.62,102.62,0,0,1-25.1,36.26C987.22,85.87,986.6,86.31,985.28,87.39Z"/><path class="cls-1" d="M586.91,179.1c-2.88,6.16-7.5,8.54-13.94,7.3-5.24-1-8.71-5.36-9.14-11.41-.69-9.88,5.12-15.69,14.24-14.28a10,10,0,0,1,7.63,5.58c3.13,5.93,1.94,8-4.6,8-2.72,0-5.45.14-8.16,0s-2.75,1.09-2.26,3.12a5.74,5.74,0,0,0,4.06,4.53c2,.61,4.11.09,5-1.53C581.77,176.55,584.28,178.35,586.91,179.1ZM575.64,171c1.68-1.31,5.15,1.8,5.37-1.91.16-2.71-2.27-4.54-5.2-4.47s-5.17,2-5,4.7C571,172.3,574.08,169.91,575.64,171Z"/><path class="cls-1" d="M881.93,174.28a12.57,12.57,0,0,0-3.42.06c-1.55.44-4.38-1.75-4.48,1.85-.09,3.37,3,6.32,6,5.86,1.41-.22,3-.65,3.6-2.06,1-2.27,2.58-2.13,4.56-1.69s2.56,1.14,1.33,3c-2.74,4.19-6.65,5.55-11.42,5.19s-8.2-2.69-9.8-7.08c-1.83-5-1.82-10.1,1.53-14.63,3-4,7.19-4.79,11.86-4.09a9.66,9.66,0,0,1,6.69,4.2c1.8,2.55,3.18,5.66,2,8.42-1,2.16-4.1.59-6.25.92A13.89,13.89,0,0,1,881.93,174.28ZM879.14,171c1.69-1.31,5.15,1.8,5.38-1.91.16-2.71-2.26-4.53-5.19-4.47s-5.18,2-5,4.69C874.54,172.29,877.58,169.91,879.14,171Z"/><path class="cls-1" d="M724.37,173.19c0-2.57,0-5.15,0-7.73,0-4.19,1.39-5.47,5.33-3.92a4.13,4.13,0,0,0,3.67-.16c7.06-2.82,12.26.29,12.81,7.88.33,4.7.09,9.44.34,14.15.13,2.55-1.38,2.33-3,2.25s-3.53.65-3.38-2.3c.2-3.86.06-7.73.05-11.59,0-3.27-.74-6.42-4.62-6.46s-4.68,3.25-4.86,6.37c-.2,3.42-.18,6.87-.05,10.3.1,2.43-.08,3.76-3.27,3.84-3.65.09-3-1.94-3-4Q724.38,177.49,724.37,173.19Z"/><path class="cls-1" d="M893.75,173.27c0-2.86.21-5.75-.06-8.58-.3-3,1.08-4,3.64-3.34s4.86.1,7.38-.5c6.62-1.56,10.35,1.38,10.84,8.33.33,4.7.1,9.44.35,14.15.13,2.45-1.21,2.49-2.91,2.33-1.52-.14-3.58.79-3.45-2.22.17-4,.07-8,0-12,0-3.12-.9-6-4.54-6.1s-4.69,2.92-4.89,5.86a96.41,96.41,0,0,0-.06,12c.15,2.78-1.46,2.47-3.23,2.5s-3.34.15-3.16-2.55C893.92,179.87,893.75,176.56,893.75,173.27Z"/><path class="cls-1" d="M1081.47,167.18c0-5.43.15-10.87-.06-16.3-.11-2.74,1.17-2.95,3.33-2.89s3.53,0,3.47,2.85c-.16,8.44.08,16.88-.12,25.31-.07,3,.53,4.59,3.92,4.07,1.54-.24,3.15.06,4.71-.07,2.11-.17,2.69.74,2.67,2.75,0,1.86-.25,3.12-2.51,2.78a6.17,6.17,0,0,0-.86,0c-4.69-.08-10.87,1.62-13.67-.72s-.6-8.83-.86-13.49C1081.41,170,1081.47,168.61,1081.47,167.18Z"/><path class="cls-1" d="M824.41,170.76c0,1.29-.09,2.59,0,3.87.76,8.86-4.52,12.67-13.12,11.83-4.9-.48-8-3.19-8.38-8.14s-.18-10-.34-15c-.08-2.74,1.88-1.92,3.27-2,1.61-.11,3.16-.26,3.06,2.26-.16,4-.11,8,0,12,.06,2.88.74,5.51,4.3,5.79,3.91.31,4.91-2.51,5.11-5.48a89.29,89.29,0,0,0,0-12c-.18-2.67,1.19-2.64,3.08-2.64s3.37,0,3.07,2.64A60.5,60.5,0,0,0,824.41,170.76Z"/><path class="cls-1" d="M686.31,164.68c0,6-.12,12,.06,18,.08,2.51-.79,3.05-3.14,3.06s-3.14-.7-3.12-3.14q.18-18,0-36c0-2.5.81-3.08,3.18-3.12s3.13.83,3.07,3.19C686.22,152.67,686.31,158.68,686.31,164.68Z"/><path class="cls-1" d="M758.17,186.53a9.89,9.89,0,0,1-6.72-2.26c-1.2-.91-2.19-1.81-.74-3.43,1.07-1.19,1.9-2.11,3.36-.52a5.1,5.1,0,0,0,3.46,1.49c1.81.15,3.49-.19,4-2.28a3,3,0,0,0-2-3.77c-1.55-.71-3.13-1.37-4.64-2.16-2.77-1.45-4.37-3.55-3.68-6.91s2.64-5.55,6.23-6a11.65,11.65,0,0,1,7,1c.81.41,2.61.58,1.55,2.26-.68,1.07-1.15,2.87-3.17,1.73a5.24,5.24,0,0,0-2-.73c-1.39-.14-3-.46-3.65,1.31s.32,3,1.94,3.69c.78.34,1.6.59,2.38.91,5.58,2.33,6.95,4.45,6,9.25C766.85,183.88,762.93,186.56,758.17,186.53Z"/><path class="cls-1" d="M941,186.53a10,10,0,0,1-6.66-2.43c-1.09-.87-1.92-1.73-.61-3.11,1-1,1.68-2.5,3.31-.77a5.48,5.48,0,0,0,3.86,1.63c1.63.07,3.2-.31,3.71-2.17a3,3,0,0,0-1.81-3.84c-1.68-.76-3.41-1.44-5-2.34-2.74-1.54-4.16-3.77-3.4-7.08.71-3.09,2.48-5.08,5.61-5.69a11.87,11.87,0,0,1,7.88,1c.88.45,2.44.87,1.18,2.41-.73.89-1.11,2.52-2.91,1.58a6.74,6.74,0,0,0-2.37-.84c-1.4-.15-3-.32-3.47,1.58-.44,1.69.45,2.71,1.89,3.36.77.35,1.59.61,2.37.93,5.77,2.39,7.27,4.73,6.11,9.57C949.82,184.07,945.8,186.64,941,186.53Z"/><path class="cls-1" d="M772.17,176.18c0-2.15.06-4.29,0-6.43-.06-1.25.56-2.54-1.7-3.17s-1.33-4.24-.63-4.43c4-1.1,2.21-4.12,2.23-6.2,0-2.66,1.13-3,3.34-3s3.05.54,3,2.85c-.1,2.81-1.39,6.52,4,6,1.29-.12.55,2.19.72,3.38.21,1.44-.78,1.71-1.86,1.52-3.12-.56-3,1.37-3,3.54.09,4.28-.13,8.58.08,12.86.13,2.65-1.29,2.56-3.15,2.57s-3.36-.05-3.09-2.68A65.18,65.18,0,0,0,772.17,176.18Z"/><path class="cls-1" d="M1113.09,166.88c-3.65-.8-5.13.35-4.71,4.34.4,3.82,0,7.72.13,11.57.07,2.14-.39,3.14-2.81,3-2-.16-3.66.15-3.43-2.81a55.87,55.87,0,0,0,0-9.85c-.23-2.37,1.88-5.71-2.45-6.94-.62-.18-.9-3.85.26-4.11,3.76-.83,2-3.5,2.2-5.36.19-2.08-.16-3.79,3-3.76,2.79,0,3.39,1,3.25,3.48s-1.12,5.62,3.77,5.53c1.8,0,1,3.22.69,5.08A1.2,1.2,0,0,1,1113.09,166.88Z"/><path class="cls-1" d="M921.78,176.27c0-2,.08-4,0-6-.09-1.47.84-3.23-2-3.76-1.49-.28-1.07-4.12-.35-4.31,4-1.07,2.28-4.06,2.31-6.17,0-2.51.89-3.13,3.24-3.07,2,.06,3.13.3,3.07,2.76-.06,2.71-1.63,6.6,3.95,6.1,1.44-.13.61,2.14.81,3.31.22,1.36-.61,1.82-1.78,1.61-3-.53-3.17,1.12-3.09,3.45.14,4.28-.11,8.58.1,12.86.12,2.53-1.08,2.73-3.07,2.67s-3.42.08-3.17-2.6C921.94,180.86,921.78,178.55,921.78,176.27Z"/><path class="cls-1" d="M647.31,167.29c-3.71-1.85-7.19-2.85-10.16.69a8.72,8.72,0,0,0-.23,10.69c2.42,3.17,5,3.51,10.19,1.34.39,5.71-.5,6.65-6.16,6.52-5.31-.12-8.92-2.89-10.82-7.62-2-4.92-1.56-9.75,2-14,3.36-4,7.73-5.08,12.69-4C648.75,161.69,646.89,164.78,647.31,167.29Z"/><path class="cls-1" d="M308.53,167.17c0,5.3-.16,10.59.07,15.87.12,2.6-1.1,2.69-3,2.66s-3.48.25-3.43-2.73c.19-10.58.17-21.16,0-31.74,0-2.83,1.08-3.19,3.53-3.27,2.77-.09,2.94,1.19,2.9,3.34C308.46,156.59,308.53,161.88,308.53,167.17Z"/><path class="cls-1" d="M718.66,167.09c0,5.29-.14,10.59.06,15.87.1,2.44-.87,2.88-3,2.74-1.82-.13-3.57.44-3.51-2.65.18-10.72.15-21.45,0-32.17,0-2.78,1.35-2.84,3.44-2.88s3.08.39,3,2.79C718.54,156.22,718.66,161.66,718.66,167.09Z"/><path class="cls-1" d="M784.55,173.43c0-2.72,0-5.44,0-8.16,0-3.92,1.62-5.44,5.07-3.75,1.92.94,2.68.39,4.09-.25a7.39,7.39,0,0,1,6.21-.31c1.53.73.23,2.31.36,3.5.16,1.45-.36,1.73-2,1.6-4.84-.36-7,1.65-7.37,6.67a68.11,68.11,0,0,0,0,10.3c.25,3.14-1.68,2.5-3.5,2.67-2.23.21-3-.52-2.89-2.83C784.7,179.74,784.55,176.58,784.55,173.43Z"/><path class="cls-1" d="M618.61,173.27c0-2.72.06-5.44,0-8.16-.07-2.28-.2-4,3.18-4s3.15,1.8,3.13,4c-.06,5.87-.17,11.74.05,17.59.09,2.67-1,2.95-3.24,3s-3.33-.49-3.15-3C618.78,179.57,618.61,176.41,618.61,173.27Z"/><path class="cls-1" d="M536.35,117.23c5.58-2.48,10.83-5,15.38-8.68,1.6-1.29,2.62-1.28,3.92.26a47.75,47.75,0,0,0,3.64,3.49c-4.79,4.49-10.28,7.5-15.8,10.49-1.67.9-2.6.47-3.56-.89C538.84,120.36,537.64,118.9,536.35,117.23Z"/><path class="cls-1" d="M604,117.47c-2,2.55-3.29,4.7-5.1,6.16-1.21,1-2.36-.89-3.44-1.58-3.88-2.49-7.73-5-11.48-7.7-1-.72-3.82-1.32-1.58-3.28,1.5-1.31,1.84-5.22,5.27-3.23,4.93,2.87,9.77,5.92,14.66,8.87A15.42,15.42,0,0,0,604,117.47Z"/><path class="cls-1" d="M531.54,67.43l0,5.43c-2.59-.86-4.33,1.67-7.09,1.61-1.81-4.91-2.6-10.35-4.85-15.33-1.19-2.62,1.84-1.93,2.87-2.67,1.2-.86,2.9-1.46,3.72.91,1.1,3.13,2.41,6.18,3.54,9.3C530.09,67.76,530.4,68.46,531.54,67.43Z"/><path class="cls-1" d="M1047.41,193.36c-2.16.25-2.5-.85-1.87-2.58,1.35-3.75,2.69-7.5,4.12-11.22,1.3-3.38,4.08-1.5,5.82-1,2.32.64.15,2.3-.25,3.27-1.36,3.28-3.12,6.4-4.55,9.66C1050,193,1049.07,193.73,1047.41,193.36Z"/><path class="cls-1" d="M356.73,172.72c-1.28,0-2.56-.05-3.84,0-2.66.14-1.91-1.82-2-3.24s0-2.85,2.13-2.73,4.27,0,6.4,0,4.12-.55,4.09,3-2.18,2.87-4.2,2.91C358.44,172.74,357.59,172.72,356.73,172.72Z"/><path class="cls-1" d="M1036.38,177.89a4,4,0,0,1,4.35,4.13c.06,2.64-1.5,4.68-4.5,4.62s-4.61-1.77-4.49-4.62C1031.85,179.45,1033.42,177.86,1036.38,177.89Z"/><path class="cls-1" d="M1147.25,186.68c-2.86-.15-4.64-1.67-4.59-4.53,0-2.57,1.52-4.17,4.34-4.26s4.5,1.55,4.64,4C1151.79,184.53,1150.26,186.49,1147.25,186.68Z"/><path class="cls-1" d="M625.21,151.77a3.11,3.11,0,0,1-3.39,2.93,3.29,3.29,0,0,1-3.66-3.31,3.38,3.38,0,0,1,3.69-3.76C623.9,147.67,625.24,148.92,625.21,151.77Z"/><path class="cls-3" d="M31.18,115.77c0-21.68.07-43.36-.07-65,0-3.19.71-4.13,4-4.13q65,.2,130.07,0c3.35,0,4.07,1,4.06,4.15q-.15,65,0,130.06c0,3.26-.82,4.13-4.1,4.12q-65-.16-130.07,0c-3.39,0-4-1-4-4.16C31.25,159.12,31.18,137.45,31.18,115.77Zm68.91,57c5.8,0,11.6-.17,17.39.06,3.1.13,4.24-.56,4.15-4-.27-9.24,0-18.49-.16-27.73-.07-3.13.6-4.28,4-4.18,9.38.26,18.77,0,28.15.15,2.79,0,3.78-.52,3.73-3.55-.19-11.87-.15-23.74,0-35.6,0-2.62-.57-3.54-3.37-3.49-9.52.18-19.05,0-28.56.14-3,.06-4-.62-4-3.83.23-9.79,0-19.6.13-29.39,0-2.35-.67-3-3-3q-18.42.16-36.84,0c-2.66,0-3.22.93-3.19,3.36.11,9.8,0,19.6.11,29.39,0,2.68-.65,3.55-3.43,3.5-9.8-.17-19.6,0-29.39-.11-2.32,0-3.07.6-3,3,.11,12.14.13,24.28,0,36.43,0,2.61.76,3.23,3.26,3.19,9.65-.13,19.32.06,29-.12,3-.06,3.69.86,3.64,3.7-.17,9.25.16,18.5-.17,27.74-.14,3.87,1.17,4.6,4.65,4.43C88.77,172.57,94.43,172.78,100.09,172.78Z"/><path class="cls-4" d="M67.76,100.33c4.85,0,9.67.24,14,2.83,2.19,1.32,4.4,2.91,2.86,5.91-1.08,2.11-5.82,2.24-7.71,0-3.08-3.73-6.91-4.79-11.41-4.3a14,14,0,0,0-4,1c-1.2.5-2.81,1-2.56,2.77.19,1.38,1.45,2,2.7,2.24,3.62.77,7.25,1.61,10.91,2.17a41.35,41.35,0,0,1,9.94,2.66c5.74,2.48,6.43,8.71,1.42,12.45-3.85,2.86-8.4,3.42-12.93,3.6-6.6.27-13.27.42-19-3.79-1.86-1.36-3.41-2.93-3.26-5.35.07-1.12,1.17-1.83,2.33-2.06,2.57-.5,4.78-.19,6.67,2a13.82,13.82,0,0,0,17.06,3.27c1.24-.67,2.54-1.32,2.62-2.91.09-1.89-1.53-2.48-2.87-3.11-2.79-1.31-5.91-1.19-8.86-1.8-4.54-1-9.33-1.21-13.25-4.12s-3.89-6.91-.05-10C55.38,101.37,60,100.33,67.76,100.33Z"/><path class="cls-5" d="M134.07,131.74c-3-.15-5.76-1.06-5.08-4.79,1.27-6.89-2-11.43-7-15.46a67.61,67.61,0,0,1-6.71-6.62c-2.23-2.38-.74-3.77,1.62-4.35a6.74,6.74,0,0,1,6.83,1.85c3,3.07,6.06,6,9,9.14,1.08,1.15,1.54,1.37,2.74,0,2.77-3,5.81-5.84,8.69-8.78a7.07,7.07,0,0,1,3.41-2.23c2-.42,4.44-.75,5.73,1.19,1.41,2.14-.75,3.46-2.05,4.78a42.94,42.94,0,0,1-4.8,4.55c-5.48,4.1-9,8.91-7.64,16.31C139.44,130.71,136.78,131.45,134.07,131.74Z"/><path class="cls-4" d="M101.62,117.85c2.46,0,4.93-.08,7.4,0,1.26.05,2.52.52,2.66,2.05s-1,2.28-2.28,2.43a61.15,61.15,0,0,1-15.53,0c-1.24-.16-2.43-.83-2.3-2.41s1.41-2,2.65-2.06C96.68,117.77,99.15,117.85,101.62,117.85Z"/></svg>