<svg id="圖層_1" data-name="圖層 1" xmlns="http://www.w3.org/2000/svg" viewBox="0 0 959.19 206.52"><defs><style>.cls-1{fill:#231815;}</style></defs><path class="cls-1" d="M463.13,53.8c1,2.91,4.74,3.31,3.45,6.74-.26.67,1.27.53,2,.55a42.92,42.92,0,0,0,6.71,0c3.83-.52,4.87,1,4.69,4.68-.13,2.74-.87,3.49-3.54,3.41-6.55-.18-13.11-.06-21-.06A62,62,0,0,0,475,78.9c4.93,1.5,5.47,3.18,2.86,7.87-.55,1-1,1.57-2.16,1-4.3-2-3.84.94-3.82,3.6.05,5.28.06,10.56,0,15.83,0,1.26.82,3.34-1.43,3.39-2.41.06-6.27,1.45-6.94-1-1-3.5-3-2.64-5-2.72-2.56-.11-5.12,0-7.68,0-1.27,0-2.77-.23-2.64,1.76.15,2.25-1.34,2-2.81,2.11-3.89.4-6.09-.21-5.75-5.17.51-7.48.25-15,.07-22.55-.07-2.77.82-3.57,3.52-3.45,4.56.2,9.14.06,14.9.06-4.85-3.32-8.75-6-11.89-9.51-1-1.1-2.2-1.06-3.5-1.11-7.34-.3-14.65-.85-20,6-1.37,1.76-3.8,2.69-6.71,4.66,5.55,0,10.08.14,14.61-.06,2.62-.11,3.6.55,3.54,3.38-.19,8.15,0,16.32-.1,24.48,0,1.25.72,3.43-1.6,3.17s-5.52,1.93-6.6-1.49c-.7-2.19-1.87-2.6-3.42-2.17-3.72,1-8.95-3.1-11.29,3.43-.27.75-4.27.59-6.39.14s-1-2.7-1.08-4.11c-.13-5.76-.11-11.52,0-17.28,0-2.32-.36-3.38-2.92-2-4.67,2.54-3.43-2.18-4.61-3.9-1.8-2.65-.23-3.42,2.14-4.12a66,66,0,0,0,20.14-10.09c-7.52,0-13.81-.22-20.08.09-3.51.17-3.35-1.69-3.38-4.09s-.08-4.21,3.4-4.06c7.19.29,14.42-.3,21.59.21,5.55.39,8.78-1.63,10.63-7.44-8.2,0-16.24-.28-24.25.1-4.62.22-6.59-.71-6.05-5.84s.22-10.23.08-15.34c-.08-2.53.41-3.77,3.36-3.71,9,.17,17.92.15,26.88,0,2.64,0,3.21,1,3.15,3.36-.14,5.6,0,11.2-.09,16.8,0,1.84.35,3.35,2.29,3.49,4.65.34,3.79,2.49,1.95,5.18a25.42,25.42,0,0,0-1.44,2.91h22c1.33-2.7-5.18-3-2.1-6.47.25-.28-1-.46-1.55-.47-3.36,0-6.73-.18-10.08,0-2.93.19-4.31-.41-4.12-3.83.3-5.74.17-11.51,0-17.27C440.61,30.27,441,29,444,29c9.27.17,18.55.15,27.83,0,2.61,0,3.25.9,3.19,3.33-.14,6.08-.15,12.16,0,18.24.06,2.43-.5,3.49-3.14,3.27C469.08,53.62,466.25,53.8,463.13,53.8Zm-7.69,33.32H450.2c-1,0-2-.07-2,1.32,0,3.18-1.13,7,.22,9.39,2.3,4.11,7.07.92,10.7,1.63,1.39.27,3.5,1,4.12-1.77C465,89.66,463.21,87.11,455.44,87.12Zm-37,12.46c7.34,0,7.07,0,7.44-7.09.23-4.36-1-6.1-5.45-5.45a44.33,44.33,0,0,1-6.21.06c-1,0-2.15.1-2.16,1.3,0,3.48-.56,7.19.47,10.37C413.17,100.73,416.6,99.16,418.44,99.58Zm39.27-53.24h6.66c1,0,1.69,0,2.08-1.3,1.73-5.7-.3-8.58-6.23-8.58-2.85,0-5.71,0-8.56,0-1,0-2.07-.41-2.57,1.26-1.69,5.71.33,8.6,6.24,8.6Zm-41.18,0c9.44,0,9.34,0,8.7-7.6-.17-2-.86-2.35-2.58-2.31-3.8.09-7.61,0-11.41,0-1,0-2-.28-2.48,1.37-1.58,5.95.24,8.5,6.34,8.5Z"/><path class="cls-1" d="M178.25,100.91c3.5,0,6.53-.13,9.55,0,2.83.17,4.18-.77,4-3.77-.22-4.93,1.46-11.08-.9-14.42C189,80,182.31,82.07,177.73,82c-9-.12-9,0-9,8.79,0,4.8-.21,9.6.07,14.38.22,3.81-2.22,3.09-4.35,3.06s-4.91.92-4.72-3.2c.27-6.07-.2-12.17.16-18.22.26-4.16-1.27-5.22-5.14-4.92a62.4,62.4,0,0,1-12.45,0c-4.5-.57-5.71,1.6-6.17,5.37-.91,7.36-3.86,14.06-6.93,20.73-1.14,2.48-1.88,2.26-4,.82-4.45-3-5.31-5.77-2.29-10.65,5-8.12,5.39-17.55,5.53-26.81q.27-18.69,0-37.4c0-3.33.43-4.64,4.28-4.6,21.42.23,42.84.17,64.25,0,3.23,0,4.37.67,4.34,4.16-.16,21.42,0,42.84-.1,64.25,0,10-1.79,11.69-11.72,11.69-.8,0-1.6,0-2.4,0C179.1,109.47,179.1,109.47,178.25,100.91Zm-30-26.9c12.19,0,12.12,0,11.59-11.58-.11-2.27-.69-3-3-3q-8.61.21-17.21,0c-2.22,0-2.51.84-2.61,2.78C136.46,74,136.41,74,148.29,74Zm31.54-14.52c-11.9,0-11.9,0-11.1,11.89a2.57,2.57,0,0,1,0,.48c-.22,1.69.57,2.19,2.2,2.17q9.31-.11,18.64,0c1.56,0,2.1-.42,2.3-2.11,1.48-11.88,1.06-12.43-10.6-12.43Zm0-22c-2.88,0-5.75,0-8.63,0-1,0-2.44-.41-2.45,1.36,0,3.68-.07,7.36,0,11,0,1.76,1.56,1.24,2.56,1.25,5.91,0,11.83-.05,17.74.06,2,0,2.65-.51,2.78-2.64.7-11.08.78-11.07-10.11-11.07ZM148.11,51.16c12.18,0,12.18,0,11.7-10.56a2.57,2.57,0,0,1,0-.48c.29-2.14-.74-2.72-2.76-2.69-5.75.1-11.51.12-17.26,0-2,0-2.64.5-2.76,2.63-.61,11.11-.69,11.1,10.12,11.1Z"/><path class="cls-1" d="M315.57,50.63a2,2,0,0,1-.12-.46c-.1-5.73-2.34-13,.72-16.73s10.48-.81,16-1.1c3-.16,6.07,0,9.11,0,5.35,0,5.35,0,2.75-5,6.57-2.44,7.79-2.2,10.89,3.25,1.21,2.13,2.86,1.68,4.51,1.69,7.83.05,15.66.17,23.49,0,3.07-.09,3.32,1.33,3.24,3.72-.08,2.19.19,4-3.11,3.86-7-.26-14.06-.08-21.09-.08-1,0-1.92,0-2.87,0-2.43-.06-3,1.89-3.09,3.52-.18,2.38,2,1.46,3.13,1.48,7.35.09,14.7.08,22.05,0,2.51,0,4.59-.3,4.48,3.56-.11,3.49-1.88,3.39-4.27,3.32-1.42,0-2.84.18-4.27.28-4.16-.32-8.33-.74-12.72.07,2.18,2.89,5.15,6,5.94,5.86,2.7-.41,3.19-3.14,4.67-4.81.72-.81,1.41-.34,2.12-.41,4.5,2.76,4.5,2.76,0,9.54a36.63,36.63,0,0,1,6.12,2.55c1.49.93,5.49-.22,3.54,4.23-1.53,3.46-2.8,5.54-6.59,2.78-.21-.16-.61-.07-1.21-.11,0,4.47-.19,8.93.07,13.36.19,3.23-.59,4.61-4.13,4.34-4.13-.32-8.32.06-12.47-.13-2.39-.1-3,.77-2.9,3,.17,3.35,0,6.71,0,10.07,0,4.56-2,7.25-6.73,7.54-2.07.13-4.14.32-6.21.34-3,0-6-3.68-5.3-6.56.45-2,2-1.15,3.12-1.18,7-.2,7-.17,7-7.2a29,29,0,0,1,0-3.36c.26-2.17-.71-2.71-2.74-2.66-4.47.13-9-.14-13.43.11-3.06.16-4.3-.63-4.08-3.91.28-4.28.07-8.58.07-13.54-4.3,3.83-6.24,1.73-7.49-2.53a91.86,91.86,0,0,1-3.71,21.31,61.47,61.47,0,0,1-9.44,19.13c-1.54-.34-2-1.68-2.94-2.46-3.36-2.75-3-5.37-.65-8.83,4.74-6.93,6.75-14.9,7.68-23.55-1.71,1-3,1.89-4.4,2.69-5.08,3-5.43,2.75-6.85-3.16-.38-1.55-.13-2.42,1.29-3a2.78,2.78,0,0,1,.44-.19c8.12-1.9,11.58-7,10.34-15.21Zm27.8.94c-5.19,0-9.34-.16-13.46.06-2.87.15-3.44-1-3.47-3.63s1-3.25,3.39-3.18c4.63.13,9.28-.17,13.9.11,3.13.18,4.22-1.92,4.28-4,.07-2.47-2.44-1.17-3.71-1.2-5.9-.16-11.82-.08-17.73-.07-1.53,0-3.29-.44-3.27,2.17.07,8.09,0,16.19,0,24.37,9.49-2.28,9.62-2.64,3.68-9-.4-.44-1-.81-.63-1.58,5.35-3.4,5.66-3.63,8.2-.25s4.26,2.65,6.23-.27C341.4,54.18,342.06,53.35,343.37,51.57ZM355.51,78c-4.63,0-9.26.07-13.89,0-2.08,0-2.31,1.06-2.32,2.69s.34,2.67,2.37,2.65c8.93-.08,17.87,0,26.8,0,1.74,0,2.65-.5,2.67-2.43S370.57,78,368.43,78C364.12,78.1,359.81,78,355.51,78Zm-.6-5.7h12.94c1.56,0,3.25.36,3.25-2.22,0-2.25-1.08-2.62-3-2.61q-12.93.09-25.87,0c-1.9,0-2.92.31-2.94,2.56,0,2.55,1.52,2.29,3.15,2.28C346.61,72.31,350.76,72.33,354.91,72.33Zm8.37-11c-2.68-3.05-5-5.79-7.44-8.42-1.75-1.9-3.45-2-5,.42-1.66,2.62-3.42,5.17-5.31,8Z"/><path class="cls-1" d="M621.36,36.5c12.73,0,24.86.07,37,0,3.17,0,5,0,5.07,4.31,0,4.7-2.38,4.17-5.33,4.15-11.36-.06-22.72,0-34.07,0-7.47,0-7.47,0-11.87,7.59h18.3c7.2,0,14.39,0,21.59,0,2.21,0,3.51.17,3.48,3-.14,15,0,30.07-.12,45.1-.06,5.86-2.69,8.45-8.47,8.87-4.14.3-8.3.26-12.45.36-1.54,0-2.49-.23-3-2.16-1.78-6.55-1.75-6.74,5-6.56,1.12,0,2.24,0,3.36.09,5.2.4,8.23-4.15,6-9-.67-1.47-1.88-.92-2.86-.92-11.2,0-22.4,0-33.59-.07-2.23,0-3.09.5-3,2.89.19,4.47-.17,9,.12,13.43.3,4.63-2.94,3.09-5.12,3.22s-4.66.91-4.58-3.19c.25-12.79.09-25.59.09-39.26-3.83,3.18-7.22,5.89-10.48,8.76-1.9,1.68-3.08,2-4.69-.56-3.45-5.49-3.59-5.36,1.68-9.26,8.23-6.09,15.8-12.84,22.18-22.32-7.68,0-14.61-.22-21.51.09-3.63.16-4.53-.92-4.54-4.51s1.2-4.15,4.38-4c7.35.23,14.72-.14,22.07.16,3.62.15,5.79-1,6.64-4.44,1.2-4.91,3.64-7.13,9.06-5.3,2.34.8,3.45,1.06,2.09,3.62C622.94,32.12,622.38,34,621.36,36.5Zm4.8,47c5.57,0,11.16-.21,16.73.08,3.28.17,3.21-1.58,3-3.78-.16-1.81,1-4.17-2.68-4.1q-17,.29-33.94,0c-3.58-.06-2.71,2.12-2.78,4s-.5,4,2.94,3.86C615,83.32,620.58,83.54,626.16,83.54Zm.55-23.05c-5.74,0-11.5.15-17.24-.06-2.69-.1-3.33,1-3,3.3.24,1.84-.9,4.25,2.72,4.2q17-.21,34,0c3.58,0,2.59-2.25,2.76-4.14.19-2.17,0-3.53-2.94-3.38C637.58,60.68,632.14,60.49,626.71,60.49Z"/><path class="cls-1" d="M254.25,66.5c12.79,0,25.57.06,38.35,0,2.6,0,4,.16,4,3.48s-1.41,3.49-4,3.45c-8-.12-16-.06-24,0-1.48,0-3.57-.51-3.41,2,.15,2.34,2.18,1.34,3.36,1.36,5.75.11,11.52.23,17.26,0,3.19-.14,4.43.55,4.32,4.07-.26,8.62-.05,17.26-.12,25.88,0,1.32.86,3.41-.85,3.82-2.21.53-5.58,1.4-6.73-.41-1.41-2.21-2.9-1.52-4.37-1.53-16-.08-32,.13-47.94-.19-3.42-.07-5.2,3.61-8.89,2.55-2-.58-3.42-.46-3.37-3.22q.26-13.9,0-27.81c-.05-2.65.94-3.2,3.33-3.13,5.27.14,10.55.16,15.82,0,1.42,0,4.1,1.35,4.15-1.45.06-3.15-2.83-1.85-4.43-1.88q-10.78-.22-21.58,0c-2.49,0-3.7-.32-3.7-3.29s1-3.69,3.9-3.66C228.36,66.59,241.31,66.5,254.25,66.5Zm0,32.42c-8.15,0-16.31,0-24.46,0-1.3,0-3.34-1-3.47,1.81-.12,2.69,1.65,2.19,3.17,2.19q24.71,0,49.4,0c1.46,0,3.3.64,3.23-2.12S280,99,278.69,99C270.54,98.89,262.38,98.92,254.23,98.92Zm-15.7-5.72c13.55,0,27.1,0,40.64,0,1,0,2.68.65,2.71-.94,0-2.07-1.91-1.17-3-1.2-4.79-.1-9.59,0-14.39-.07-3.5,0-6.17-1.41-7.09-5.13-.33-1.32.65-3.74-2.1-3.24s-6.52-2-8.39,2C245.17,88.44,242.12,90.76,238.53,93.2Zm1.39-10.67c-4.19,0-7.54,0-10.88,0-.91,0-2.43-.35-2.52.69-.28,3-.92,6.34.09,9,.92,2.4,4.07.59,7,1.09-1.46-2.36-3.39-3.49-3.82-5.55C233.43,87.21,236.91,86.4,239.92,82.53Zm33.82,3v0h6.17c1.15,0,2.26.06,2.14-1.65-.09-1.39-1.05-1.33-2-1.33-4.27,0-8.54,0-12.81,0-.87,0-2.11-.19-2,1.24a1.71,1.71,0,0,0,1.85,1.72C269.31,85.48,271.53,85.5,273.74,85.5Zm-20.31-8.41c1-1.23,3.75,1.33,3.89-1.75.14-3.26-2.64-2-4.22-2s-4-1.09-3.89,1.86S251.86,76.28,253.43,77.09Z"/><path class="cls-1" d="M714,97.84l14.91-4.46c.65,8.23.69,8.36-6.81,10.62-6.69,2-13.46,3.76-20.23,5.52-5.3,1.38-2.41-3.49-3.66-5.2-1-1.44-.9-3.51,2-3.45,4.58.1,5.39-2.33,5.34-6.58-.25-20.3,0-40.61-.22-60.91,0-4,1.23-4.63,4.79-4.57q18.23.3,36.45,0c3.12,0,4.07.78,4,4-.19,10.87-.17,21.74,0,32.61,0,2.93-.71,4-3.73,3.76-4.3-.26-8.63.07-12.94-.11-2.48-.11-3.06.82-2.6,3,.68,3.28.83,7.73,3.49,9,2.32,1.11,4.75-2.93,7.15-4.66a9.5,9.5,0,0,0,2.67-2.73c1.79-3,3.07-2,5.28-.17,3.23,2.61,3.76,4.5.18,7.08-2.32,1.67-4.15,4.14-6.61,5.49-4.78,2.63-3.29,5-.28,7.66,2.77,2.41,5.64,4.71,8.36,7.17,1.2,1.09,3.89,1.62,3.23,3.46-.76,2.14-2.59,4-4.3,5.66-1.26,1.21-2.32-.45-3.2-1.15-11.46-9-20.41-19.87-23.33-34.48-1-5.07-3.35-5.85-7.67-5.41-2,.21-2.28,1-2.27,2.65C714,80.26,714,88.86,714,97.84Zm13.65-52.68c3.84,0,7.69-.24,11.5.07,3.6.29,2.87-2,2.8-4s1.1-4.62-2.87-4.51c-7.5.22-15,.12-22.52,0-4.09,0-2.28,3-2.53,4.79s-.61,3.87,2.61,3.64C720.3,45,724,45.16,727.66,45.16Zm.23,16c3.84,0,7.68-.07,11.52,0,4.11.08,2.28-3,2.52-4.8s.68-3.79-2.57-3.7c-7.67.21-15.36.06-23,.07-1.09,0-2-.16-2.4,1.51-1.13,5.14.12,6.9,5.32,6.9Z"/><path class="cls-1" d="M254.47,59.7c.58,3.8-1.08,4.59-4.6,4.51-10.55-.25-21.11-.19-31.67,0-3,0-4.22-.63-4.14-3.93.22-9.44.18-18.88,0-28.32-.06-3,.56-4.17,3.89-4.1,11.36.22,22.72.1,34.08.07,2.14,0,4-.33,4,3,0,3.64-2.35,2.67-4.2,2.7-4.64.08-9.28,0-13.92,0-1.56,0-3.8-.35-3.75,1.81s2.25.91,3.41,1c3.83.17,7.68,0,11.51.09,1.44,0,3.26-.67,3.25,2.09,0,2.38-1.31,2.23-3,2.57-2.2.44-6.22-1.93-6.21,1.49,0,2.37,4.3.7,6.63,1.13a13.74,13.74,0,0,0,2.87,0c1.7-.06,1.64,1.11,1.62,2.26s.26,2.69-1.75,2.67c-2.22,0-4.44,0-7.2,0,2.25,3.28,11.31,2.29,4.83,9.78l15.18-1c.08-3.66-8.12-2.31-5.19-8.23-3.88.29-4.7-1.93-3.14-5.54,1.12-2.59-2-2.66-2.57-4.65,3.53-2.24,6.79-4.89,6.66-9.84-.05-1.71,1.52-1.3,2.54-1.31,6.56,0,13.12.13,19.67-.08,3.22-.11,2.83,1.87,2.62,3.7-.41,3.47,1.11,4.65,4.39,4.25a16.31,16.31,0,0,1,3.35,0c1.89.14,1.6,1.61,1.65,2.86s0,2.62-1.89,2.58c-3.51-.07-7,.07-10.54-.22a4.44,4.44,0,0,1-4.1-3.52c-.41-1.8-.74-3.66-3.2-2.88-3,1-7.07-2.49-9.19,2.2-1.13,2.53-3.29,4.15-6.67,6.62,9.35,0,17.38-.11,25.4.06,2.24,0,5.37-1.46,6.6,1,1.6,3.15-.94,5.67-3,7.94L285,56.52c3.08,1.94,6.85.83,10,2.43-.21,6.24-.93,6.84-6.9,5.63a8,8,0,0,1-1.41-.26c-7.7-3.24-15.4-2.08-23.21-.36C258.1,65.13,257.87,64.78,254.47,59.7ZM233.09,49.05c-2.54-.1-5.08-.27-7.63-.28-1.69,0-2.7-.38-2.71-2.37,0-1.82.59-2.69,2.47-2.6a12.34,12.34,0,0,0,2.38-.56c-8.18-4.24,1.4-6,.68-9.26-6.68-.66-6.68-.66-6.68,5.46,0,5.44.16,10.88-.06,16.31-.13,3.31,1.49,3,3.86,2.57l-1.87-5.08c3.43-1,6.85-1.22,9.55-3.45l.75-.43Zm16.13,9.36c-8.42-6.34-9.47-6.33-19.47,0Zm15.65-9.21c9.93,6.22,12,6.18,17,0Zm-36.42-5.28c2.21,0,4.06,0,5.91,0,1.12,0,1.76-.47,1.71-1.66,0-1-.71-1.31-1.57-1.26C232.32,41.13,229.66,40.11,228.45,43.92Z"/><path class="cls-1" d="M87,98c8.33,1.53,16.71,3.05,25.15,4.73-2.87,7.83-2.85,7.71-10.46,6q-8.85-2-17.83-3.3c-4-.59-5.11-2.1-2.82-5.62a5.85,5.85,0,0,0,.38-1.6H59.53c2.57,6.33,2.59,6.43-4.49,8.18-4.94,1.21-9.94,2.22-14.95,3.07-7.85,1.32-7.86,1.23-10.48-6.47,8.44-1.4,17-1.8,25.25-5-4.58,0-9.17-.12-13.75.05-2.29.09-3-.61-3-2.93q.21-12.45,0-24.93c0-2.34.74-2.93,3-2.92,19.66.08,39.31.11,59,0,2.88,0,3.42,1,3.38,3.61q-.21,12,0,24c0,2.5-.66,3.33-3.19,3.22C95.87,97.82,91.41,98,87,98ZM70.87,88.62c-7,0-14.08,0-21.12,0-1.45,0-3.5-.66-3.53,1.93s2.08,1.9,3.49,1.9q21.1.07,42.22,0c1.25,0,3.08.78,3.25-1.62.18-2.59-1.61-2.23-3.2-2.23Zm-.05-8c-7.17,0-14.34,0-21.51,0-1.22,0-3.15-.77-3.09,1.69.05,2.22,1.75,1.86,3.13,1.86,14.34,0,28.68,0,43,0,1.55,0,2.92,0,2.8-2.15s-1.77-1.43-2.85-1.44C85.16,80.6,78,80.63,70.82,80.63Zm-.12-7.69c-7.2,0-14.4,0-21.59,0-1.11,0-2.81-.6-2.79,1.53s1.66,1.59,2.82,1.59q21.58,0,43.18,0c1.16,0,2.77.49,2.76-1.61S93.39,73,92.28,73C85.09,72.91,77.89,72.94,70.7,72.94Z"/><path class="cls-1" d="M539.33,101.06c3.66,0,7.31,0,10.95,0,2.16,0,3.74-.35,3.72-3.08-.06-11.13,0-22.27,0-34.8-4.55,6.87-8.1,12.79-12.49,18.12a178,178,0,0,1-13.44,14.29c-1.93,1.88-2.66,1.35-4.14-.7-2.83-3.87-2.51-6.3,1.23-9.67a114,114,0,0,0,26-34c-6,0-11.51-.28-16.95.09-3.93.26-3.34-2-3.53-4.44-.22-2.84.49-3.94,3.6-3.79,5.58.28,11.19,0,16.79.13,2.31.07,3.06-.64,2.94-2.95-.18-3.51.25-7.07-.12-10.55-.42-3.93,1.67-4,4.54-3.87,2.52.14,5.25-.62,4.73,3.67-.37,3.15.18,6.41-.14,9.58-.34,3.44.88,4.36,4.21,4.15C571.71,43,573.43,45.7,572,50c-.78,2.32-2.75,1.37-4,1.21-4.09-.53-5,1.07-5,5,.26,13.91.12,27.82.1,41.73,0,9.5-2.07,11.54-11.51,11.55h-3.35C540.2,109.48,540.2,109.48,539.33,101.06Z"/><path class="cls-1" d="M895.77,30c11.84,0,23.68.1,35.51-.07,3.2,0,4.42.63,4.4,4.17-.17,21.91,0,43.82-.11,65.73,0,7.69-2.32,10-10,10.31-4.31.16-8.64-.09-13,.09-2,.08-2.94-.68-3.29-2.5-1.56-8.07-2.91-7,5.09-6.7,11.41.43,11.41.42,11.41-11.06,0-15.84-.11-31.68.09-47.51,0-3.47-1-4.13-4.25-4.11-20.64.15-41.27,0-61.9.13-3,0-4.6-.23-4.52-4,.07-3.47.77-4.69,4.51-4.61C871.78,30.18,883.78,30,895.77,30Z"/><path class="cls-1" d="M692.81,37.68c-12.33-.93-12.33-.93-12.33,10.86,0,19.36-.08,38.72.08,58.08,0,3.28-.7,4.4-4.15,4.28-3.07-.1-4.46-.47-4.43-4.12q.25-36.72,0-73.44c0-3.25.71-4.49,4.2-4.36,7.19.27,14.4.27,21.59,0,3.34-.13,4,1.08,3.87,4.08-.32,7-2.85,13.38-5.06,19.83-1.1,3.19-1.3,5.75.35,8.9,3.24,6.21,6.15,12.65,4.72,20-1.18,6.19-7.91,10.72-14,9.09-3.63-1-2.92-4.68-3.25-7.18-.39-3,2.33-1,3.48-1.08,5.16-.15,6.61-1.81,5.64-6.9A46.82,46.82,0,0,0,688.2,62a8.5,8.5,0,0,1-.59-8C689.71,48.76,691.1,43.2,692.81,37.68Z"/><path class="cls-1" d="M790.63,95.44c11.49-1.89,22.24-.49,32.87-2.09,2.74-.42,3.31-1,1.9-3.43-2.84-4.8-5.57-9.65-8.35-14.48,7.81-4.16,7.83-4.17,12.35,3.4a146.73,146.73,0,0,1,12,25.94c.7,2,1.34,4.09-1.74,3.84-2.53-.21-6,5.21-7.55-.83-1.23-4.76-3.06-6-8.5-5.48-17.14,1.73-34.38,2.32-51.59,3.32-6.5.37-3.68-5.19-4.51-7.94-1-3.42,2.68-2.11,3.88-1.88,7,1.31,10.28-2.43,13.28-7.94a172.14,172.14,0,0,0,12.77-30.28c2-6.32,5.72-1.6,8.44-1.48,3.86.17,1.48,3.14,1,4.6A149,149,0,0,1,790.63,95.44Z"/><path class="cls-1" d="M522.68,78.85c-3.25-4.31-5.11-9.36-9.09-13-1.39,1.52-.73,3.19-.74,4.69-.07,12.15-.22,24.3.07,36.45.09,4-1.91,3.73-4.65,3.82-3,.11-4.56-.26-4.48-4,.26-12.41.1-24.84.1-38.69C499.76,76,496.42,82.71,491,88.9A67.8,67.8,0,0,0,488.27,82c-1.19-2.22-.59-3.68.88-5.54A87.2,87.2,0,0,0,502.24,53.3c.94-2.49.52-3.14-2-3s-4.82-.17-7.19.07c-3.07.3-4.08-.69-4.09-3.9s1-4.11,4.13-4c3.45.11,8,1.55,10.12-.61s.58-6.68.65-10.16c.11-5.78,1.6-6.92,7.32-5.79,2,.4,1.6,1.6,1.62,2.78,0,3.52.13,7,0,10.55-.11,2.42.56,3.56,3.18,3.34,2.22-.18,4.51.23,6.7-.09,3.94-.59,4.47,1.3,4.31,4.61-.11,2.34-.48,3.52-3.14,3.27a52.28,52.28,0,0,0-7.19,0c-1.33,0-3.19-.72-3.69,1.2a4.5,4.5,0,0,0,1.44,4.73c3.48,3.27,6.54,7,10,10.24s3.55,6.26.38,9.62C524.06,76.9,523.46,77.84,522.68,78.85Z"/><path class="cls-1" d="M70.39,64.35c-8.64,0-17.28-.13-25.91.08-2.94.07-4.07-.6-3.4-3.63.94-4.26-.7-6.1-5.16-5.39-1.72.28-3.52,0-5.27.07-2.5.18-2.29-1.47-2.4-3.11-.12-1.88.57-2.56,2.46-2.46,2.55.13,5.13-.16,7.67.08,2.84.27,4.28-.47,3.7-3.58-.92-4.83,1.41-5.63,5.8-5.56,16.15.27,32.31.24,48.47,0,3.72,0,5,1,4.19,4.52-.9,3.9.72,5.09,4.42,4.6,1.73-.23,3.52,0,5.28-.06s3.08-.06,2.94,2.41c-.11,2-.24,3.47-2.81,3.15-1.27-.15-2.58.11-3.84,0-4.69-.58-8.2.05-7.09,6.15.45,2.5-1.06,2.82-3.14,2.8C87.66,64.31,79,64.35,70.39,64.35ZM83.14,50c2.39,0,4.78,0,7.17,0,1,0,2.38.28,2.39-1.5,0-1.32-.5-2.14-1.93-2.14-5,0-9.89,0-14.83,0-1.4,0-1.94.91-1.93,2.2C74,50.38,75.44,50,76.44,50,78.67,50.05,80.9,50,83.14,50ZM57.87,50h6.65c1,0,1.9-.12,1.87-1.48s-.25-2.16-1.82-2.15c-4.27,0-8.54,0-12.82,0-1.31,0-2,.42-2.12,1.88-.08,1.63.85,1.76,2.07,1.74C53.76,50,55.81,50,57.87,50ZM82.5,58.64h7.64c1,0,1.83-.18,1.85-1.52s-.59-1.66-1.73-1.66q-7.41,0-14.81,0c-1.15,0-1.75.46-1.85,1.62-.17,1.85,1.16,1.53,2.21,1.55C78,58.66,80.27,58.64,82.5,58.64Zm-25.56,0c2.39,0,4.79,0,7.18,0,.84,0,1.52-.31,1.58-1.35s-.43-1.81-1.61-1.81c-4.47,0-8.94,0-13.41,0a1.72,1.72,0,0,0-1.86,1.75c-.1,1.44.94,1.4,1.9,1.4C52.79,58.66,54.86,58.65,56.94,58.64Z"/><path class="cls-1" d="M887.2,93.88c-7.34,0-14.69-.09-22,.05-2.49,0-3.33-.69-3.28-3.23.14-8,.12-16,0-23.94,0-2.32.39-3.41,3.09-3.39,14.84.13,29.69.1,44.53,0,2.22,0,3.11.55,3.08,2.93q-.2,12.21,0,24.42c0,2.64-1,3.22-3.39,3.18C901.88,93.81,894.54,93.88,887.2,93.88Zm.28-22.08h-6.23c-10.22,0-10.12,0-10,10.25,0,2.62.55,3.62,3.38,3.52,6.22-.21,12.46-.06,18.69-.06,10.19,0,10,0,10-10.22,0-3.19-1.15-3.68-3.87-3.54C895.48,72,891.48,71.8,887.48,71.8Z"/><path class="cls-1" d="M327,155.77c2.89-8,5.59-15.33,8.14-22.7.72-2.1,1.86-2.84,4.07-2.74,2.46.11,2.23,1.95,2.44,3.32q2.37,16.11,4.52,32.25c.12.94,1.87,3.16-1.07,2.91-1.89-.17-4.79,1.63-5.32-2.2-.93-6.65-2-13.28-2.95-19.92-.07-.42-.18-.82-.41-1.87-2.87,7.69-5.56,14.83-8.18,22-.39,1.06-.45,2.57-1.8,2.53s-1.38-1.57-1.73-2.62c-2.4-7-4.81-14-8-21-1.1,6.5-2.23,13-3.28,19.5-.33,2-.34,3.65-3.33,3.82-3.64.2-3.9-1.2-3.4-4.12,1.83-10.55,3.51-21.12,5.23-31.69.24-1.45.35-2.83,2.41-2.85,1.86,0,3.12.19,3.88,2.32C320.94,140.17,323.87,147.57,327,155.77Z"/><path class="cls-1" d="M123.55,158.28c0-8.59.08-16.1,0-23.6,0-2.42.32-3.55,3.2-3.55s3.58,1,3.54,3.71c-.14,10.44,0,20.88-.1,31.32,0,1.21,1,3.17-1.28,3.46-1.79.24-3.55.37-4.94-1.57-4.07-5.69-8.35-11.22-12.57-16.8-2-2.71-4.12-5.38-7-9.07,0,8.4-.16,15.71.07,23,.1,3-.82,3.87-3.8,3.79-2.48-.06-3-.8-3-3.15.12-10.59,0-21.17.1-31.76,0-1.22-1-3.18,1.06-3.58,1.88-.36,3.71-.43,5.24,1.69,5.75,8,11.78,15.79,17.7,23.67Z"/><path class="cls-1" d="M239.62,158.2c0-8.63.13-16.18-.07-23.73-.07-2.76.89-3.3,3.43-3.32,2.7,0,3.36.9,3.33,3.47-.13,10.44,0,20.88-.1,31.32,0,1.25.94,3.2-1.07,3.64s-3.79.36-5.29-1.68c-5.73-7.84-11.64-15.54-17.49-23.29-.4-.52-.81-1-1.9-2.4,0,8.48-.13,15.85.07,23.2.08,2.84-.76,3.58-3.57,3.59s-3.29-.79-3.25-3.37c.15-10.59,0-21.17.11-31.76,0-1.18-1-3.16,1.26-3.42,1.75-.2,3.47-.41,4.89,1.57,5.86,8.09,11.94,16,17.95,24C238.24,156.48,238.59,156.9,239.62,158.2Z"/><path class="cls-1" d="M65.86,31c-.72-1.54-1.23-2.61-1.76-3.74,4.54-1,9-2.86,11.65,2.93.69,1.51,2.62.77,4,.78,9.28.05,18.56.16,27.83-.05,3-.07,4,.84,3.7,3.77a33.26,33.26,0,0,0,0,7.66c.58,4.07-1.3,4.63-4.81,4.63-3.22,0-4.44-1-3.86-4.1.82-4.3-1-5.18-5.13-5.13-18.08.24-36.16.2-54.24,0-3.41,0-4.35.91-4.16,4.23.25,4.44-3,6.42-7.24,4.82A1.67,1.67,0,0,1,30.61,45c0-4,0-8,0-12,0-2.66,1.92-2,3.39-2.05C44.37,31,54.77,31,65.86,31Z"/><path class="cls-1" d="M275.89,149.08h1.29c7.9,0,7.9,0,6.05,7.7-2,8.45-8.59,13.49-17.09,13.14s-15.35-6.62-16.91-15.4c-2.36-13.22,6.38-24.56,18.64-24.11,5.41.2,10,2.15,13,6.92.57.88,1.83,2,.12,2.74s-3.07,3.25-5.17,1.51c-7-5.85-9.91-6.7-14.19-3.77-5.11,3.51-7.31,11.51-5,18.16,1.57,4.54,4.43,7.68,9.39,8.22a8.47,8.47,0,0,0,8-3.12c1.45-1.84,3-4.12,2.19-6.17-.65-1.63-3.31-.55-5.07-.66s-3.6.43-3.63-2.63,1.88-2.5,3.63-2.52C272.75,149.07,274.32,149.08,275.89,149.08Z"/><path class="cls-1" d="M52.13,149.94c0-5.3.16-10.6-.07-15.89-.12-2.83,1.29-2.87,3.38-2.85s3.8.1,3.39,2.9a9.1,9.1,0,0,0,0,1.28c.08,12.53.07,12.48,12.94,11.23,1.74-.17,2.15-.73,2.11-2.31-.08-3.44.13-6.89-.07-10.31-.18-2.92,1.55-2.76,3.53-2.78s3.23,0,3.2,2.61q-.19,16.32,0,32.64c0,2.83-1.56,2.4-3.27,2.44-1.94,0-3.67.26-3.48-2.72.24-3.85-.05-7.73.1-11.59.08-2.13-.38-3.14-2.77-2.94-4,.34-9.08-1.57-11.6.74-2.33,2.12-.25,7.31-.8,11.08-.28,1.87,2.23,5.19-2.34,5.46-3,.18-4.64-.23-4.35-4C52.42,160,52.13,155,52.13,149.94Z"/><path class="cls-1" d="M208.61,145.65c0,4,.18,8,0,12-.43,7.69-5.64,12.29-13.63,12.34-7.83.05-13.25-4.31-13.68-11.78-.48-8.13-.25-16.31-.5-24.46-.09-3.15,2-2.36,3.72-2.53,2.18-.22,3.07.48,3,2.82-.14,5.87-.09,11.75,0,17.62a39.85,39.85,0,0,0,.5,6c.7,4.22,3.47,6.9,6.94,6.9s6.15-2.61,6.89-7a37.39,37.39,0,0,0,.48-6c.06-5.87.16-11.74,0-17.61-.1-2.92,1.54-2.68,3.51-2.79,2.21-.13,3,.52,2.94,2.84-.19,3.86-.05,7.73-.05,11.6Z"/><path class="cls-1" d="M613.27,156.67c0-3,.13-6,0-9-.14-2.31.44-3.79,3-3.14a15,15,0,0,0,8.59-.61c3.52-1.14,6.46,3.19,8.39,2.46,2.84-1.07,5.3-2.88,8.64-2.54a6.25,6.25,0,0,1,6,6.14c.47,5.69.34,11.43.43,17.15,0,2.8-2.13,1.55-3.43,1.74-1.5.22-2.78.12-2.73-2.1.09-4.15-.06-8.3-.12-12.45,0-2.75-.71-5.67-3.82-5.77s-3.9,2.87-4,5.57c-.15,3.86-.32,7.74-.1,11.58.16,2.8-.9,3.32-3.43,3.29-2.37,0-3.27-.6-3.15-3.11.19-4,.08-8,0-12,0-2.35-.42-5-3.28-5.27-3.22-.36-4.14,2.49-4.36,4.82a89,89,0,0,0-.21,12.86c.12,2.6-1.13,2.66-3.06,2.68s-3.6,0-3.37-2.82C613.47,163,613.27,159.81,613.27,156.67Z"/><path class="cls-1" d="M390.87,145.43c1-5.23.6-10.49.51-15.71,0-2.59,1-3,3.25-3s3.19.61,3.16,3.1c-.12,11.71-.24,23.44,0,35.15.1,3.72-1.46,4.6-4.35,3.83-2.31-.62-4.1-.1-6.24.61-5.08,1.68-10-.61-12.71-5.36-3-5.35-2.4-12.54,1.4-16.78C379.52,143.26,384,142.7,390.87,145.43Zm1.12,11.4c0-4.49-2.89-7.9-6.65-7.78-3.52.11-6.48,3.59-6.49,7.65s3.23,7.86,6.84,7.83S392,161.26,392,156.83Z"/><path class="cls-1" d="M897,150.21c6.47-7.1,9.77-8,17.47-4.72,1-5.09.55-10.18.56-15.23,0-2.28.12-3.65,3.11-3.59,2.75,0,3.3.91,3.27,3.46-.13,11.43,0,22.87-.06,34.3,0,4.65-.9,5.5-5.42,4.26a4.59,4.59,0,0,0-3.4,0c-7.68,3.12-14.87-1.15-16-9.41a28.1,28.1,0,0,1,.63-9.23Zm18.6,6.66c0-4.5-2.85-7.92-6.61-7.82-3.53.09-6.5,3.56-6.53,7.62s3.2,7.87,6.82,7.86S915.57,161.29,915.6,156.87Z"/><path class="cls-1" d="M36.48,169.94c-4.17.07-7.31-1.8-10-4.84-2.15-2.37-.65-3.58.93-5.15,2.27-2.25,2.47.52,3.3,1.34,2.29,2.26,4.79,3.79,8,2.37,2.48-1.09,3.42-3.24,3.24-5.95A5,5,0,0,0,39,153.36c-2.15-1.1-4.33-2.15-6.49-3.24-5.15-2.6-7-6-6.05-11a11.19,11.19,0,0,1,9.48-8.66,13.8,13.8,0,0,1,9,2c1.57,1,3,1.8,1.4,4.3s-2.43,1.55-4.13.32a5.74,5.74,0,0,0-7.52.17c-2,1.71-2.4,3.83-.33,5.92,2.24,2.28,5.11,3.61,7.85,5.13,5.85,3.26,7.65,6.93,6.21,12.55S42.52,169.94,36.48,169.94Z"/><path class="cls-1" d="M783.81,139.85c-6.75-4.35-11.89-4.09-16.17.65a14.79,14.79,0,0,0-.64,18.85c4.11,5.22,8.74,5.65,16.64,1.54.57,7.74-3.38,10.54-12.29,8.7-9.57-2-16.19-13.29-13.9-23.76,2.35-10.72,12.16-17,22.26-14.93C785.81,132.16,783.42,136.3,783.81,139.85Z"/><path class="cls-1" d="M458.62,156.79a61.65,61.65,0,0,0,.07,8.16c.52,3.83-1.59,4.7-4.37,3.8-2.28-.73-3.95-.05-5.92.57a10.43,10.43,0,0,1-12.11-4.1c-3.51-5-3.46-12.64.12-17.27a10.82,10.82,0,0,1,12.65-3.61,5.72,5.72,0,0,0,4.57.31c3.79-1.35,5-.15,5,4C458.63,151.35,458.62,154.07,458.62,156.79Zm-5.59,0c0-4.75-2.57-7.79-6.55-7.74s-6.65,3.25-6.58,7.82c.07,4.16,2.9,7.5,6.51,7.66C450.23,164.7,453,161.44,453,156.8Z"/><path class="cls-1" d="M888.28,47.05c8.94,0,17.89.17,26.82-.09,3.32-.1,3.66,1.34,3.43,3.93-.2,2.23.82,4.71-3.28,4.67q-26.58-.3-53.16,0c-4,0-3.38-2.15-3.45-4.53s-.25-4.2,3.3-4.08C870.71,47.24,879.5,47.05,888.28,47.05Z"/><path class="cls-1" d="M847.52,59.84c-7.09,7.77-7,7.69-14.18.75a64.78,64.78,0,0,1-14.78-20.43c-1.36-3.08-3.19-4.41-6.52-3.93-1.57.23-3.23-.17-4.79.08-4.12.65-5.16-1.1-4.93-5,.16-2.75,1-3.28,3.58-3.47,9.79-.73,17.86-.53,22.16,11.43C831.19,48,839.63,53.92,847.52,59.84Z"/><path class="cls-1" d="M163.52,145.16c1.77-3.16,3.58-5.77,4.75-8.64,1.94-4.72,5-6.52,10.48-4.78-2.82,4.87-5.2,10.06-8.54,14.52-4.47,6-2.83,12.56-3,19-.05,3-.87,4-3.84,3.73-1.92-.16-3.44-.14-2.95-2.7,2.27-11.8-3.34-21.17-9.3-30.49-.78-1.23-2.84-2.57-1.35-4.35,1.06-1.27,6.59.23,7.46,1.86C159.29,137,161.25,140.83,163.52,145.16Z"/><path class="cls-1" d="M787.26,156.58c0-7.8,5.17-13,12.74-13,7.74.08,13,5.54,12.86,13.44-.11,7.58-5.44,12.73-13.1,12.67S787.24,164.46,787.26,156.58Zm19.15,0c-.06-4.44-2.69-7.57-6.37-7.57s-6.77,3.45-6.74,7.84,3.3,7.8,7,7.62S806.46,161.09,806.41,156.62Z"/><path class="cls-1" d="M769.3,70.6c-2.08-2.42-4.44-4.49-5.89-7.08-.87-1.55,1.63-2.36,2.69-3.36,9.53-8.93,17.51-18.94,22.1-31.35,1.6-4.35,4.12-1,6.12-.55,1.82.41,3.95.69,2.57,4a102.57,102.57,0,0,1-25.1,36.27C771.25,69.08,770.63,69.52,769.3,70.6Z"/><path class="cls-1" d="M370.94,162.3c-2.88,6.17-7.51,8.55-13.95,7.31-5.23-1-8.71-5.36-9.13-11.41-.69-9.88,5.12-15.69,14.24-14.28a10,10,0,0,1,7.62,5.58c3.14,5.93,1.94,8-4.59,8-2.72,0-5.45.14-8.16,0s-2.75,1.08-2.26,3.12a5.75,5.75,0,0,0,4.06,4.53c2,.61,4.1.09,5-1.53C365.8,159.75,368.31,161.56,370.94,162.3Zm-11.27-8.08c1.68-1.32,5.14,1.8,5.36-1.92.17-2.7-2.26-4.53-5.19-4.46s-5.17,1.95-5,4.69C355.06,155.51,358.11,153.11,359.67,154.22Z"/><path class="cls-1" d="M666,157.49a12.93,12.93,0,0,0-3.41,0c-1.55.45-4.38-1.74-4.48,1.86-.1,3.36,3,6.32,6,5.85,1.41-.21,3-.64,3.6-2.06,1-2.26,2.58-2.12,4.56-1.68s2.56,1.14,1.33,3c-2.74,4.19-6.66,5.54-11.43,5.19s-8.2-2.69-9.79-7.08c-1.83-5-1.82-10.11,1.53-14.64,3-4,7.19-4.79,11.86-4.08a9.64,9.64,0,0,1,6.69,4.19c1.79,2.55,3.18,5.67,2,8.42-1,2.17-4.11.6-6.25.93A14,14,0,0,1,666,157.49Zm-2.78-3.27c1.68-1.31,5.15,1.79,5.37-1.91.17-2.71-2.26-4.53-5.18-4.47s-5.18,1.94-5,4.69C658.57,155.5,661.61,153.12,663.17,154.22Z"/><path class="cls-1" d="M508.39,156.4c0-2.58,0-5.15,0-7.73,0-4.2,1.39-5.47,5.32-3.92a4.13,4.13,0,0,0,3.67-.16c7.07-2.83,12.27.29,12.81,7.88.34,4.7.1,9.44.35,14.15.13,2.55-1.38,2.33-3,2.25s-3.53.65-3.38-2.3c.2-3.86.05-7.73.05-11.6,0-3.26-.74-6.41-4.62-6.45s-4.68,3.25-4.86,6.37c-.2,3.42-.18,6.87,0,10.3.09,2.43-.08,3.75-3.27,3.84-3.65.09-3.05-1.94-3-4C508.4,162.13,508.39,159.26,508.39,156.4Z"/><path class="cls-1" d="M677.77,156.48c0-2.86.22-5.75,0-8.58-.3-3,1.08-4,3.64-3.34s4.86.1,7.38-.5c6.62-1.56,10.35,1.38,10.84,8.33.33,4.7.1,9.44.35,14.15.13,2.45-1.21,2.49-2.91,2.33-1.52-.14-3.58.79-3.45-2.23.17-4,.07-8,0-12,0-3.12-.9-6-4.54-6.11s-4.69,2.93-4.89,5.87a98.37,98.37,0,0,0-.07,12c.16,2.78-1.45,2.47-3.22,2.5s-3.35.15-3.16-2.55C678,163.08,677.78,159.77,677.77,156.48Z"/><path class="cls-1" d="M865.5,150.39c0-5.43.15-10.87-.06-16.3-.11-2.74,1.16-3,3.33-2.89s3.53,0,3.47,2.85c-.16,8.43.07,16.88-.12,25.31-.07,3,.52,4.59,3.92,4.06,1.53-.23,3.15.07,4.71-.06,2.1-.17,2.69.74,2.67,2.75,0,1.85-.25,3.12-2.51,2.78a8.19,8.19,0,0,0-.86,0c-4.69-.07-10.87,1.63-13.67-.71s-.61-8.83-.87-13.49C865.43,153.25,865.5,151.82,865.5,150.39Z"/><path class="cls-1" d="M608.44,154c0,1.29-.09,2.59,0,3.87.76,8.86-4.53,12.67-13.12,11.83-4.9-.48-8-3.19-8.39-8.14s-.18-10-.33-15c-.08-2.73,1.87-1.91,3.27-2,1.6-.11,3.16-.26,3.06,2.26-.16,4-.11,8,0,12,.06,2.88.74,5.52,4.3,5.8,3.91.31,4.91-2.51,5.11-5.48a89.29,89.29,0,0,0,0-12c-.17-2.68,1.2-2.65,3.09-2.65s3.37,0,3.06,2.65A62.93,62.93,0,0,0,608.44,154Z"/><path class="cls-1" d="M470.34,147.89c0,6-.12,12,.06,18,.07,2.51-.79,3.06-3.15,3.07s-3.13-.7-3.11-3.14q.18-18,0-36c0-2.5.81-3.08,3.17-3.12s3.13.83,3.08,3.19C470.24,135.88,470.34,141.89,470.34,147.89Z"/><path class="cls-1" d="M542.2,169.74a9.89,9.89,0,0,1-6.72-2.26c-1.2-.91-2.19-1.81-.74-3.43,1.07-1.19,1.9-2.11,3.36-.53a5.11,5.11,0,0,0,3.46,1.5c1.81.15,3.48-.19,4-2.28a3,3,0,0,0-2-3.78c-1.55-.71-3.13-1.36-4.64-2.15-2.77-1.46-4.37-3.55-3.69-6.92s2.64-5.54,6.24-6a11.51,11.51,0,0,1,7,1c.81.41,2.61.58,1.55,2.25-.68,1.07-1.15,2.88-3.17,1.74a5.31,5.31,0,0,0-2-.73c-1.39-.15-3-.46-3.66,1.31s.33,3,2,3.69c.78.34,1.6.59,2.38.91,5.58,2.33,7,4.44,6,9.24C550.88,167.09,547,169.77,542.2,169.74Z"/><path class="cls-1" d="M725.07,169.74a9.93,9.93,0,0,1-6.66-2.44c-1.09-.86-1.92-1.72-.61-3.11,1-1,1.67-2.49,3.3-.76a5.56,5.56,0,0,0,3.86,1.63c1.64.07,3.21-.31,3.72-2.17a3,3,0,0,0-1.81-3.84c-1.68-.76-3.41-1.45-5-2.35-2.74-1.53-4.16-3.76-3.4-7.07.71-3.09,2.48-5.08,5.61-5.69a11.81,11.81,0,0,1,7.88,1c.87.45,2.43.86,1.18,2.41-.73.89-1.11,2.52-2.91,1.57a6.92,6.92,0,0,0-2.37-.83c-1.41-.15-3-.32-3.47,1.58-.45,1.69.45,2.71,1.89,3.36.77.35,1.59.6,2.37.93,5.77,2.38,7.26,4.73,6.11,9.57C733.85,167.28,729.83,169.85,725.07,169.74Z"/><path class="cls-1" d="M556.2,159.39c0-2.15.06-4.29,0-6.43,0-1.25.57-2.54-1.69-3.17s-1.33-4.24-.63-4.44c4-1.09,2.21-4.12,2.23-6.2,0-2.65,1.13-3,3.34-3s3.05.54,3,2.85c-.1,2.81-1.39,6.52,4.05,6,1.29-.11.55,2.2.72,3.38.21,1.45-.78,1.72-1.86,1.53-3.12-.56-3,1.37-3,3.54.08,4.28-.13,8.58.08,12.85.13,2.66-1.29,2.57-3.15,2.58s-3.37,0-3.09-2.68A65.18,65.18,0,0,0,556.2,159.39Z"/><path class="cls-1" d="M897.12,150.09c-3.65-.8-5.13.35-4.71,4.34.4,3.82,0,7.72.12,11.57.08,2.14-.39,3.14-2.8,2.94-2-.16-3.66.16-3.43-2.8a56,56,0,0,0,0-9.86c-.23-2.37,1.88-5.7-2.45-6.93-.62-.18-.9-3.85.26-4.11,3.76-.83,2-3.5,2.2-5.37.19-2.08-.16-3.78,3-3.75,2.79,0,3.39,1,3.24,3.47s-1.11,5.63,3.78,5.54c1.79,0,1,3.22.69,5.07Z"/><path class="cls-1" d="M705.8,159.48c0-2,.09-4,0-6-.08-1.47.85-3.23-2-3.77-1.49-.28-1.07-4.11-.35-4.3,4-1.07,2.27-4.06,2.31-6.17,0-2.51.89-3.13,3.24-3.07,2,.06,3.13.3,3.07,2.76-.06,2.7-1.64,6.6,4,6.1,1.44-.13.61,2.14.81,3.31.22,1.36-.62,1.82-1.78,1.61-3-.53-3.17,1.12-3.09,3.45.14,4.28-.11,8.58.09,12.86.13,2.53-1.07,2.72-3.06,2.67-1.84-.06-3.42.08-3.17-2.6C706,164.06,705.8,161.76,705.8,159.48Z"/><path class="cls-1" d="M431.34,150.49c-3.72-1.84-7.19-2.84-10.17.69a8.77,8.77,0,0,0-.23,10.7c2.43,3.16,5,3.51,10.2,1.33.38,5.72-.5,6.65-6.16,6.53-5.31-.12-8.92-2.89-10.82-7.62-2-4.92-1.56-9.75,2-14,3.36-4,7.73-5.08,12.69-4C432.78,144.9,430.91,148,431.34,150.49Z"/><path class="cls-1" d="M92.56,150.38c0,5.29-.16,10.59.07,15.87.12,2.6-1.11,2.69-3,2.66s-3.48.24-3.43-2.73c.19-10.58.17-21.16,0-31.74,0-2.83,1.08-3.19,3.53-3.27,2.76-.09,2.94,1.19,2.9,3.34C92.49,139.8,92.56,145.09,92.56,150.38Z"/><path class="cls-1" d="M502.69,150.3c0,5.29-.15,10.59.06,15.87.09,2.44-.87,2.88-3,2.74-1.81-.13-3.56.43-3.5-2.65.18-10.72.15-21.45,0-32.17,0-2.78,1.35-2.84,3.44-2.89s3.08.4,3,2.8C502.57,139.43,502.69,144.87,502.69,150.3Z"/><path class="cls-1" d="M568.58,156.64c0-2.72,0-5.44,0-8.16,0-3.92,1.62-5.45,5.07-3.75,1.91.94,2.68.39,4.09-.25a7.37,7.37,0,0,1,6.2-.31c1.53.73.24,2.31.37,3.5.16,1.45-.37,1.72-2,1.6-4.85-.36-7,1.65-7.37,6.67a68,68,0,0,0,0,10.29c.25,3.14-1.69,2.51-3.5,2.68-2.23.21-3-.52-2.89-2.83C568.73,163,568.58,159.79,568.58,156.64Z"/><path class="cls-1" d="M402.64,156.47c0-2.71.06-5.43,0-8.15-.07-2.29-.21-4,3.18-4s3.15,1.8,3.13,4c-.06,5.86-.17,11.73,0,17.59.1,2.67-1,3-3.23,3s-3.33-.49-3.15-3C402.81,162.78,402.64,159.62,402.64,156.47Z"/><path class="cls-1" d="M320.38,100.43c5.57-2.47,10.82-5,15.38-8.68,1.6-1.28,2.62-1.28,3.92.27a46,46,0,0,0,3.64,3.49C338.53,100,333,103,327.51,106c-1.67.91-2.59.48-3.56-.88C322.87,103.57,321.67,102.11,320.38,100.43Z"/><path class="cls-1" d="M388,100.68c-2,2.55-3.29,4.7-5.09,6.16-1.21,1-2.36-.89-3.44-1.58-3.88-2.5-7.73-5-11.48-7.7-1-.72-3.82-1.33-1.58-3.29,1.5-1.3,1.84-5.21,5.26-3.22,4.94,2.87,9.77,5.91,14.66,8.86A14.55,14.55,0,0,0,388,100.68Z"/><path class="cls-1" d="M315.57,50.63l0,5.44c-2.59-.86-4.34,1.67-7.09,1.61-1.81-4.92-2.6-10.36-4.85-15.33-1.2-2.62,1.83-1.93,2.86-2.67,1.2-.86,2.9-1.47,3.73.91,1.09,3.13,2.41,6.18,3.53,9.29C314.12,51,314.43,51.66,315.57,50.63Z"/><path class="cls-1" d="M831.44,176.57c-2.16.25-2.5-.85-1.88-2.58,1.36-3.75,2.69-7.5,4.12-11.22,1.3-3.38,4.08-1.5,5.83-1,2.31.63.15,2.3-.25,3.27-1.37,3.28-3.12,6.4-4.55,9.65C834,176.25,833.1,176.94,831.44,176.57Z"/><path class="cls-1" d="M140.76,155.93c-1.28,0-2.56-.05-3.84,0-2.67.13-1.91-1.82-2-3.24s0-2.85,2.13-2.73,4.27,0,6.4,0,4.12-.56,4.08,3-2.17,2.87-4.19,2.91C142.47,156,141.62,155.93,140.76,155.93Z"/><path class="cls-1" d="M820.41,161.1a4,4,0,0,1,4.35,4.13c.06,2.64-1.5,4.68-4.51,4.62s-4.6-1.77-4.48-4.62C815.88,162.66,817.45,161.06,820.41,161.1Z"/><path class="cls-1" d="M931.28,169.88c-2.86-.14-4.64-1.67-4.59-4.52,0-2.57,1.51-4.17,4.34-4.26s4.5,1.55,4.64,4C935.82,167.74,934.29,169.7,931.28,169.88Z"/><path class="cls-1" d="M409.24,135a3.11,3.11,0,0,1-3.39,2.93,3.28,3.28,0,0,1-3.66-3.31,3.37,3.37,0,0,1,3.69-3.76C407.93,130.88,409.27,132.13,409.24,135Z"/></svg>